<?xml version="1.0" standalone="no"?>
<!DOCTYPE svg PUBLIC "-//W3C//DTD SVG 20010904//EN"
 "http://www.w3.org/TR/2001/REC-SVG-20010904/DTD/svg10.dtd">
<svg version="1.0" xmlns="http://www.w3.org/2000/svg"
 width="5556.000000pt" height="5556.000000pt" viewBox="0 0 5556.000000 5556.000000"
 preserveAspectRatio="xMidYMid meet">

<g transform="translate(0.000000,5556.000000) scale(0.100000,-0.100000)"
fill="#000000" stroke="none">
<path d="M16098 51484 c-27 -14 -28 -17 -28 -99 0 -62 3 -85 13 -85 29 1 140
29 148 37 6 6 9 38 7 72 l-3 63 -40 14 c-50 17 -63 17 -97 -2z"/>
<path d="M13726 51448 c-9 -12 -16 -34 -16 -47 0 -32 50 -212 63 -229 7 -8 27
-12 56 -10 38 3 48 8 63 34 18 30 18 35 1 135 l-18 103 -40 12 c-90 25 -93 25
-109 2z"/>
<path d="M40760 50910 c-19 -10 -71 -55 -115 -99 l-80 -81 -3 -183 c-4 -229
-1 -235 142 -351 l99 -81 156 0 c189 0 193 2 285 117 l66 82 0 174 0 174 -50
83 c-47 78 -56 87 -135 134 l-84 51 -123 0 c-101 -1 -129 -4 -158 -20z"/>
<path d="M23233 50728 c-32 -33 -33 -36 -33 -120 l0 -87 58 -44 c31 -24 62
-47 69 -50 14 -9 141 39 166 63 10 9 24 43 32 76 l14 59 -33 51 c-37 55 -22
49 -211 80 -24 4 -36 -1 -62 -28z"/>
<path d="M22279 50564 c-19 -14 -40 -29 -47 -33 -6 -4 -28 -44 -47 -90 l-35
-83 52 -54 53 -55 75 31 c41 17 79 35 85 41 13 13 44 185 36 198 -6 10 -119
71 -132 71 -3 0 -21 -12 -40 -26z"/>
<path d="M28481 50366 c-51 -55 -51 -55 -51 -121 0 -36 5 -75 10 -86 6 -10 38
-33 71 -49 l60 -31 82 34 82 33 3 91 c3 87 1 93 -20 107 -24 16 -165 76 -178
76 -4 0 -30 -24 -59 -54z"/>
<path d="M33701 50214 c-18 -20 -30 -43 -27 -52 2 -9 10 -49 16 -87 6 -39 15
-76 19 -84 5 -7 52 -20 105 -29 l96 -16 35 34 35 35 -16 95 c-8 52 -19 99 -24
104 -8 8 -154 35 -191 36 -10 0 -31 -16 -48 -36z"/>
<path d="M10629 49999 c-26 -13 -39 -29 -52 -67 l-18 -50 35 -70 35 -69 62
-16 c72 -18 77 -16 136 45 l41 43 -14 75 c-8 41 -20 80 -27 87 -6 6 -46 18
-88 26 -70 13 -79 13 -110 -4z"/>
<path d="M32968 49884 l-38 -37 0 -102 0 -102 37 -36 c36 -36 38 -37 116 -37
79 0 80 0 118 39 l39 39 0 96 c0 96 0 97 -34 134 -34 36 -36 37 -118 40 l-83
4 -37 -38z"/>
<path d="M14516 49871 c-14 -22 -34 -146 -25 -157 12 -15 149 -38 159 -28 8 9
30 113 30 145 0 13 -17 21 -71 33 -83 19 -86 19 -93 7z"/>
<path d="M15512 49827 l-52 -53 0 -85 c0 -83 1 -86 33 -116 28 -27 46 -34 136
-49 l103 -18 54 56 54 56 0 77 0 76 -51 55 -52 54 -86 0 -87 0 -52 -53z"/>
<path d="M24854 49764 c-49 -25 -94 -50 -100 -57 -18 -19 -67 -156 -61 -170 3
-7 33 -48 67 -90 l62 -77 135 0 135 0 84 50 c91 56 97 65 111 178 l6 54 -79
79 -79 79 -95 0 c-94 0 -98 -1 -186 -46z"/>
<path d="M24328 49723 c-15 -16 -14 -26 1 -98 l17 -80 49 -3 c85 -6 92 -1 106
77 6 38 9 76 6 83 -5 14 -95 38 -142 38 -12 0 -29 -8 -37 -17z"/>
<path d="M12021 49547 c-31 -16 -61 -34 -68 -41 -6 -6 -18 -52 -26 -103 -15
-100 -12 -118 36 -175 20 -24 34 -29 140 -43 l118 -17 57 42 c31 24 63 50 70
58 7 10 12 49 12 109 0 89 -1 94 -31 127 -31 36 -67 48 -198 66 -48 6 -60 4
-110 -23z"/>
<path d="M27779 49379 c-63 -72 -116 -136 -117 -141 -2 -5 4 -42 13 -84 18
-80 33 -98 92 -110 29 -6 36 0 124 101 52 58 98 113 103 122 13 24 38 153 32
169 -4 10 -114 74 -129 74 -2 0 -55 -59 -118 -131z"/>
<path d="M14811 49384 c-79 -48 -85 -59 -87 -146 -2 -77 -1 -78 32 -108 32
-28 40 -30 112 -30 42 0 83 4 90 8 6 5 32 36 56 71 l44 62 -15 57 c-8 31 -19
62 -25 69 -5 7 -35 17 -66 23 -31 7 -66 14 -77 16 -11 2 -40 -8 -64 -22z"/>
<path d="M29432 49257 l-52 -53 0 -96 c0 -61 4 -99 11 -104 15 -9 146 -34 179
-34 18 0 44 19 90 65 l64 64 -17 97 c-10 53 -20 101 -23 105 -3 5 -49 9 -102
9 l-98 0 -52 -53z"/>
<path d="M40652 49287 c-15 -16 -25 -50 -37 -122 l-16 -100 33 -65 c31 -61 37
-66 80 -76 120 -30 119 -30 176 26 l52 52 0 102 0 102 -53 52 -53 52 -80 0
c-71 0 -83 -3 -102 -23z"/>
<path d="M26964 49189 c-5 -8 -22 -41 -39 -74 -17 -33 -64 -118 -106 -190 -48
-83 -88 -166 -108 -228 l-33 -98 -66 3 -66 3 -14 70 c-7 39 -19 76 -27 84 -17
17 -147 42 -161 30 -6 -5 -17 -36 -24 -69 l-13 -59 66 -82 c63 -79 65 -84 52
-108 -38 -71 -50 -77 -219 -110 -88 -18 -162 -28 -166 -24 -4 4 -20 46 -35 93
-32 95 -58 130 -127 166 -79 40 -77 42 -167 -140 l-81 -164 0 -84 0 -85 -132
-13 c-73 -7 -145 -16 -160 -21 -27 -7 -227 -128 -260 -157 -15 -13 -18 -32
-18 -119 l0 -103 63 -95 c71 -108 75 -110 204 -103 72 4 84 7 153 50 41 26 76
45 77 44 5 -4 -17 -199 -25 -227 l-7 -27 -70 34 c-68 32 -74 33 -197 34 -173
0 -185 -6 -233 -118 l-37 -85 17 -171 c15 -162 33 -259 92 -494 14 -57 22
-106 19 -109 -10 -10 -167 27 -221 53 -47 22 -144 58 -375 139 -104 37 -216
65 -258 65 -16 0 -65 -26 -123 -65 l-97 -64 -16 -69 c-19 -74 -19 -72 31 -182
17 -36 43 -93 58 -127 l28 -63 -18 -47 c-10 -27 -40 -95 -67 -153 l-49 -104
21 -28 c11 -15 20 -33 20 -40 0 -7 29 -42 65 -78 61 -62 67 -73 130 -227 l65
-162 0 -136 c0 -155 6 -146 -100 -159 -51 -7 -60 -12 -125 -76 -48 -47 -130
-107 -259 -189 l-190 -121 -95 0 c-91 0 -100 2 -206 47 -60 25 -114 50 -119
54 -5 4 -2 25 8 49 21 53 22 138 1 147 -17 6 -166 -18 -263 -44 l-63 -16 -88
86 -88 87 -207 0 -206 0 -57 30 c-40 21 -90 36 -174 50 -66 11 -131 25 -146
31 -50 19 -186 21 -240 3 -52 -18 -267 -177 -364 -269 -57 -54 -62 -65 -143
-258 -67 -160 -91 -232 -116 -347 -18 -80 -33 -146 -35 -148 -1 -1 -49 16
-106 39 -103 42 -136 60 -215 120 -38 28 -50 31 -135 36 -84 5 -107 12 -234
63 -277 114 -217 70 -645 471 -69 65 -206 183 -305 264 -175 143 -186 150
-385 249 l-205 103 -269 17 -269 17 -91 -55 c-50 -30 -149 -99 -221 -153 -123
-93 -134 -105 -205 -210 -41 -61 -115 -155 -165 -210 -49 -54 -107 -116 -127
-138 -66 -72 -75 -89 -123 -235 l-47 -145 -139 -141 c-111 -112 -139 -146
-139 -168 0 -15 -7 -113 -15 -217 -15 -186 -16 -191 -48 -239 -31 -48 -35 -50
-169 -101 l-136 -51 -17 -76 c-9 -43 -25 -111 -34 -152 l-17 -74 -74 -22 c-57
-16 -116 -46 -240 -124 -91 -56 -186 -116 -212 -132 -37 -23 -50 -38 -57 -66
-6 -20 -21 -82 -35 -136 -23 -92 -28 -103 -75 -150 -27 -28 -73 -89 -101 -135
l-50 -84 0 -168 0 -167 -97 -33 c-72 -23 -125 -50 -201 -100 l-104 -69 -99 0
c-99 0 -99 0 -137 -35 -37 -33 -39 -38 -51 -131 -20 -155 8 -139 -263 -153
-357 -18 -324 -10 -385 -92 -28 -39 -66 -106 -83 -149 -20 -50 -39 -81 -51
-85 -10 -3 -170 37 -356 91 -186 53 -352 100 -369 105 -27 8 -39 25 -97 143
l-67 134 -47 6 c-27 3 -106 10 -178 16 -71 6 -140 15 -152 20 -17 7 -29 31
-52 107 -17 54 -33 110 -37 126 l-6 27 116 0 117 0 -3 86 -3 87 -45 13 c-72
22 -99 17 -180 -34 -72 -46 -96 -75 -142 -174 -2 -4 -34 0 -73 8 -93 20 -347
52 -363 46 -7 -2 -32 -32 -57 -66 -24 -33 -66 -83 -94 -111 -51 -49 -51 -49
-51 -21 0 27 -102 197 -138 228 -9 9 -50 30 -91 47 l-75 32 -74 -73 c-40 -40
-132 -139 -204 -220 -105 -119 -134 -147 -152 -143 -102 21 -143 25 -256 25
l-129 0 -19 -27 c-68 -100 -84 -143 -118 -325 -18 -100 -39 -187 -48 -197 -14
-15 -80 -136 -201 -366 -118 -226 -145 -271 -361 -602 -63 -97 -225 -305 -331
-425 -18 -21 -95 -163 -171 -315 l-139 -278 -32 -155 c-18 -85 -45 -218 -61
-295 -16 -77 -39 -189 -51 -248 -21 -100 -27 -114 -75 -178 -41 -55 -54 -82
-63 -132 -7 -34 -15 -71 -17 -83 -4 -17 32 -59 181 -207 103 -103 197 -189
209 -193 11 -3 28 -12 36 -19 8 -7 62 -23 120 -35 101 -21 134 -36 203 -92 23
-19 35 -52 77 -198 66 -232 78 -344 61 -567 -13 -164 -13 -164 -58 -254 -44
-89 -46 -91 -154 -170 -68 -51 -109 -87 -109 -99 0 -9 -6 -22 -13 -28 -17 -15
-14 -118 5 -140 22 -25 48 -147 48 -223 0 -47 4 -70 15 -79 8 -7 15 -19 15
-26 0 -7 12 -20 28 -28 15 -8 46 -34 69 -58 40 -42 42 -46 58 -156 18 -125 24
-142 145 -359 48 -87 81 -135 94 -139 12 -4 36 -20 54 -35 32 -28 36 -29 147
-29 l114 0 -21 -37 c-12 -21 -32 -51 -44 -68 -59 -81 -64 -102 -64 -280 l0
-166 49 -164 50 -163 -15 -158 c-7 -88 -14 -179 -14 -203 l0 -43 98 4 c94 5
165 27 254 78 37 21 48 12 48 -35 0 -42 -8 -56 -100 -179 l-101 -134 -72 14
c-101 20 -97 21 -97 -36 0 -49 1 -51 50 -82 31 -21 50 -40 50 -53 2 -107 42
-501 54 -541 12 -37 28 -62 60 -90 76 -67 97 -84 109 -84 7 0 36 -11 65 -25
l52 -24 0 -133 c0 -151 -2 -144 103 -282 31 -42 57 -85 57 -97 0 -11 -7 -44
-15 -72 -15 -52 -15 -52 -113 -102 l-97 -50 -6 -140 c-6 -115 -12 -156 -37
-234 -20 -66 -35 -97 -48 -101 -10 -4 -78 -20 -151 -35 l-132 -28 -100 -83
-100 -84 -104 0 c-81 0 -114 4 -148 19 -24 10 -70 25 -102 32 l-58 12 -34 -33
c-23 -23 -45 -62 -66 -116 -35 -93 -20 -84 -172 -105 -71 -10 -90 -10 -96 0
-5 7 -11 62 -15 121 -10 154 -20 211 -42 227 -11 8 -47 13 -96 13 -77 0 -79
-1 -117 -37 -27 -26 -49 -64 -71 -121 l-33 -84 -41 6 c-23 3 -70 8 -106 12
-36 4 -86 17 -112 30 -49 25 -141 33 -153 15 -3 -6 -27 -13 -53 -16 -75 -10
-76 -11 -145 -99 l-67 -84 -16 -135 -17 -135 33 -83 c19 -46 38 -86 42 -87 5
-2 29 -44 53 -93 43 -85 45 -92 45 -179 0 -84 -3 -96 -35 -160 -24 -48 -42
-71 -58 -75 -12 -3 -86 -19 -165 -34 -78 -16 -149 -34 -157 -41 -7 -6 -48 -53
-89 -104 l-76 -93 17 -114 16 -114 122 -125 c104 -107 132 -142 189 -242 l66
-117 0 -113 c0 -146 -15 -181 -79 -186 -24 -2 -49 2 -57 9 -7 6 -48 60 -90
120 -71 101 -83 113 -160 159 -79 48 -87 51 -185 60 -57 5 -107 14 -113 20 -5
5 -57 10 -116 10 -58 0 -136 7 -175 15 -44 10 -126 15 -223 15 l-152 0 -11
-27 c-5 -15 -22 -69 -36 -121 -23 -84 -29 -94 -57 -106 -38 -17 -82 -62 -135
-141 l-41 -60 0 -102 0 -101 -33 -11 c-18 -6 -62 -41 -99 -79 l-66 -67 -17
-150 c-9 -82 -17 -150 -18 -151 -1 0 -99 -15 -217 -33 l-215 -33 -37 -36 c-34
-34 -38 -45 -54 -135 -9 -54 -15 -100 -13 -102 2 -2 55 -11 118 -20 126 -18
237 -62 250 -99 5 -12 14 -58 21 -104 l12 -82 -51 -84 c-28 -46 -51 -92 -51
-104 0 -11 -7 -25 -15 -32 -12 -10 -15 -31 -13 -99 l3 -86 45 1 c25 1 66 7 91
13 41 11 56 9 153 -18 59 -17 146 -46 193 -66 48 -19 96 -35 106 -35 11 0 110
-30 220 -67 197 -66 202 -68 316 -150 78 -56 125 -83 143 -83 16 0 69 7 119
16 l91 15 54 -35 54 -36 0 -94 0 -95 -47 -68 c-25 -37 -69 -97 -98 -133 -67
-85 -97 -143 -90 -178 20 -96 22 -99 144 -176 158 -100 148 -96 400 -167 l225
-64 85 -82 c47 -46 90 -83 97 -83 7 0 66 -27 131 -60 82 -42 144 -82 203 -133
91 -78 110 -106 118 -173 4 -42 4 -43 -29 -46 -28 -3 -38 -12 -76 -73 -23 -38
-43 -75 -43 -82 0 -6 20 -19 45 -30 l46 -18 -3 -50 -3 -49 -78 -49 -78 -48
-192 -18 c-128 -12 -203 -23 -223 -34 -29 -15 -36 -30 -82 -169 -34 -101 -56
-193 -67 -269 -20 -138 -16 -150 70 -236 l52 -53 99 0 100 0 67 -68 68 -68 15
-92 c9 -51 14 -98 11 -105 -2 -6 -55 -41 -116 -75 -102 -58 -118 -72 -180
-149 -62 -76 -77 -105 -152 -286 -79 -192 -88 -208 -185 -338 l-102 -136 -70
-244 c-38 -134 -98 -359 -132 -499 -35 -140 -68 -260 -74 -267 -6 -6 -46 -25
-88 -41 -81 -31 -194 -110 -208 -146 -5 -11 -15 -100 -24 -196 -9 -96 -22
-193 -30 -215 -14 -39 -23 -47 -96 -78 -34 -14 -266 -193 -338 -261 -19 -17
-107 -142 -198 -277 l-164 -245 0 -202 c0 -201 0 -202 -22 -206 -13 -3 -97
-17 -188 -31 -142 -23 -219 -44 -266 -73 -120 -75 -158 -116 -212 -226 l-52
-104 0 -188 0 -188 51 -85 c48 -82 57 -90 167 -168 l117 -83 164 0 c147 0 169
2 208 21 24 12 50 33 58 49 8 15 37 110 65 211 53 191 65 219 103 243 23 14
47 14 305 -12 79 -8 85 -7 164 25 87 35 114 54 124 86 4 12 20 42 36 68 26 42
35 82 79 346 40 238 54 351 68 559 14 211 21 265 33 278 14 13 41 16 150 16
111 1 136 3 153 18 16 14 191 211 242 273 14 16 43 184 43 245 0 29 -18 113
-76 354 -9 35 -16 78 -16 95 0 34 20 191 28 217 3 9 61 45 130 79 69 35 129
68 135 75 5 6 24 75 41 153 36 157 31 151 115 126 43 -13 58 -25 118 -97 38
-46 162 -177 276 -293 150 -153 222 -234 264 -298 31 -49 55 -90 54 -92 -2 -1
-56 3 -119 11 -63 7 -119 13 -124 14 -5 0 -102 92 -216 205 l-207 205 -75 0
c-52 0 -79 -4 -87 -14 -6 -7 -25 -53 -41 -102 l-30 -88 0 -304 0 -303 25 -43
c36 -62 86 -102 137 -110 82 -13 117 -27 166 -65 41 -32 50 -46 56 -81 10 -64
-1 -107 -31 -115 -39 -9 -53 -58 -53 -190 l0 -115 -134 -285 -134 -284 -17
-120 -17 -120 37 -69 c32 -58 57 -85 153 -167 l115 -98 76 12 c42 7 81 18 88
24 7 7 20 47 28 89 l16 77 -45 106 c-25 59 -46 113 -46 120 0 9 26 18 76 26
75 13 79 15 176 97 128 107 148 129 148 162 0 15 6 43 13 61 18 47 14 167 -8
210 -10 19 -39 64 -66 100 -66 90 -65 105 14 171 89 74 107 115 107 240 0 92
-2 99 -32 144 -33 50 -139 368 -126 379 11 10 206 -72 306 -128 l122 -69 0
-79 c0 -76 -3 -86 -51 -187 -75 -156 -125 -262 -139 -300 -10 -25 -10 -66 -1
-195 6 -89 14 -181 17 -204 6 -38 3 -45 -34 -85 -22 -23 -60 -84 -85 -133 -37
-75 -48 -109 -61 -198 -9 -59 -16 -116 -16 -125 0 -10 37 -76 81 -148 l82
-129 -13 -60 c-6 -33 -14 -63 -16 -67 -3 -5 -32 -8 -64 -8 -52 0 -62 -3 -75
-24 -9 -13 -17 -37 -18 -52 -2 -27 2 -30 59 -48 l60 -19 -48 -161 c-48 -159
-51 -173 -109 -601 l-11 -80 -117 -150 -117 -150 -102 -35 c-77 -26 -111 -44
-136 -70 -22 -21 -74 -113 -135 -236 l-101 -201 0 -120 0 -120 135 -118 135
-118 0 -84 0 -83 -67 -101 -67 -100 12 -47 c10 -38 27 -61 85 -118 l72 -70 70
1 c89 1 114 14 201 100 75 75 83 87 135 235 32 90 36 95 65 98 35 3 20 23 204
-263 67 -104 140 -218 163 -252 l40 -61 144 -47 c86 -28 147 -53 150 -62 5
-13 -10 -129 -24 -176 -3 -11 -66 -48 -166 -99 -89 -44 -165 -86 -169 -92 -4
-6 -8 -35 -8 -64 0 -38 4 -54 15 -58 8 -4 69 0 135 8 l120 14 0 -53 c0 -48
-12 -77 -115 -283 l-115 -230 0 -126 c0 -139 3 -148 64 -211 41 -41 42 -41
159 -58 l118 -17 49 33 c27 18 103 94 168 169 l119 135 37 200 c21 110 60 310
86 445 43 219 50 274 65 510 9 146 17 265 18 266 1 1 55 16 119 34 121 33 217
87 218 121 0 9 7 22 15 29 11 10 15 36 15 111 0 56 4 99 10 99 5 0 20 -5 32
-11 20 -8 30 -32 58 -130 l34 -119 67 0 68 0 6 33 c4 17 12 70 18 117 11 79
14 85 44 103 l32 18 67 -133 c36 -73 73 -137 80 -141 8 -4 14 -17 14 -28 0
-11 19 -40 41 -64 l42 -45 147 0 147 0 37 34 c20 19 36 40 36 46 0 7 8 24 18
38 18 27 21 44 68 399 l18 131 77 46 c42 25 81 51 86 58 11 14 33 139 33 185
0 21 -16 44 -65 93 l-66 66 -14 109 c-8 59 -12 111 -10 116 3 4 48 22 99 39
59 19 97 38 101 48 3 9 24 72 46 139 22 67 47 129 55 138 10 9 34 15 66 15 44
0 54 -4 82 -33 70 -75 113 -143 130 -206 l18 -64 -41 -56 c-72 -99 -98 -160
-111 -263 -10 -77 -98 -520 -117 -582 -3 -10 -20 -35 -38 -55 -29 -31 -39 -58
-66 -166 l-33 -129 13 -216 c6 -118 14 -240 17 -270 6 -54 5 -57 -43 -120 -42
-56 -89 -130 -147 -230 -37 -63 -136 -273 -136 -286 0 -9 -25 -72 -55 -141
l-55 -125 17 -134 16 -134 -70 -73 c-49 -51 -98 -119 -168 -236 -87 -146 -100
-174 -115 -248 l-18 -84 25 -37 c14 -20 52 -74 85 -120 l60 -83 -82 -162 c-51
-101 -121 -266 -186 -440 l-104 -279 17 -66 c16 -61 21 -68 51 -78 17 -5 37
-15 44 -22 7 -7 22 -12 34 -12 12 0 45 -5 73 -12 49 -11 51 -13 51 -45 l0 -33
-88 0 c-77 0 -97 -4 -167 -33 l-80 -34 -19 -98 c-18 -95 -18 -99 -1 -132 10
-18 33 -51 51 -72 27 -31 43 -40 81 -46 27 -4 52 -10 58 -13 5 -3 39 -7 75 -8
74 -1 102 12 182 88 35 34 50 57 57 89 12 53 27 90 92 228 27 57 49 105 49
106 0 6 91 201 109 233 12 22 44 49 97 80 l79 47 5 150 c3 84 19 240 35 354
l30 205 70 32 c39 17 129 48 200 68 135 37 145 43 187 114 16 27 16 31 -16
113 -19 46 -41 114 -51 150 l-17 67 86 137 c47 75 86 146 86 158 1 12 7 33 15
47 10 18 14 60 15 145 l0 121 98 32 c54 18 106 32 115 32 43 0 98 44 191 154
106 124 86 111 266 174 62 22 128 62 206 124 70 56 95 97 99 161 3 32 -1 40
-21 49 -13 6 -26 19 -29 29 -5 13 -16 18 -47 17 -39 0 -111 -29 -124 -49 -3
-5 -106 -9 -228 -9 l-223 0 -51 78 c-63 96 -79 166 -61 269 7 37 19 78 27 91
17 26 18 130 1 146 -5 6 -9 18 -9 27 0 10 -4 21 -10 24 -9 6 -208 34 -242 35
-22 0 -23 27 -4 90 12 41 20 50 97 97 76 47 86 57 118 119 28 52 50 77 100
115 l64 49 118 0 119 0 0 -115 c0 -116 0 -116 35 -168 19 -28 35 -59 35 -68 0
-8 16 -32 37 -52 36 -37 37 -37 118 -37 l82 0 68 86 c67 85 70 90 137 291 62
186 70 220 85 355 15 139 15 151 0 184 -13 26 -17 63 -17 150 0 105 2 119 25
158 35 60 43 65 190 130 166 74 208 98 273 159 l52 50 0 83 0 84 33 0 c26 0
41 9 67 38 53 58 62 81 64 162 2 70 0 79 -30 125 -29 44 -35 67 -49 168 -8 65
-15 124 -15 132 0 17 109 50 128 38 13 -8 21 -21 115 -194 26 -48 53 -89 61
-92 8 -3 64 1 124 10 l109 16 95 -32 c107 -36 80 -12 356 -313 l52 -57 0 -86
0 -85 -84 -168 -84 -167 -16 -172 c-9 -94 -16 -179 -16 -187 0 -12 -10 -16
-35 -16 -28 0 -37 -5 -49 -29 -19 -36 -14 -41 41 -41 l43 0 -6 -93 c-3 -50
-11 -209 -18 -352 l-12 -260 -32 -47 -32 -47 0 -221 0 -222 -95 -98 c-52 -54
-95 -103 -95 -108 0 -6 -11 -24 -25 -40 -43 -52 -84 -169 -154 -449 -39 -154
-77 -281 -87 -295 -10 -12 -79 -77 -153 -143 -133 -118 -136 -122 -171 -205
l-36 -84 -78 -33 c-43 -18 -80 -34 -83 -36 -8 -8 24 -157 37 -172 7 -9 52 -41
99 -72 47 -30 88 -57 90 -59 2 -2 -4 -34 -13 -71 -15 -62 -16 -74 -1 -142 11
-54 23 -81 43 -101 l27 -27 138 16 c155 18 160 21 172 96 3 25 10 47 14 50 9
5 181 -51 192 -63 10 -11 -24 -252 -79 -563 -44 -246 -53 -283 -85 -347 -21
-40 -37 -81 -37 -93 0 -11 -6 -32 -13 -47 -23 -46 -14 -129 22 -202 l32 -65
-10 -95 c-6 -52 -13 -133 -17 -180 -5 -72 -20 -123 -92 -325 -76 -214 -90
-246 -132 -295 -25 -30 -63 -77 -85 -103 l-38 -48 18 -167 17 -168 -51 -68
c-62 -82 -102 -158 -143 -274 -16 -48 -41 -112 -54 -143 -27 -66 -24 -108 12
-182 38 -77 56 -169 44 -225 -6 -26 -19 -58 -29 -72 -49 -68 -222 -560 -297
-845 -36 -137 -93 -342 -126 -455 -33 -113 -84 -288 -114 -389 l-54 -183 0
-188 0 -188 -68 -119 c-107 -186 -195 -396 -272 -644 -49 -162 -90 -270 -145
-389 -42 -91 -88 -189 -102 -219 -14 -30 -96 -161 -182 -290 -185 -277 -325
-496 -340 -531 -6 -14 -40 -187 -76 -384 l-64 -359 -51 -85 c-45 -75 -52 -96
-68 -190 l-16 -105 54 -49 c30 -27 82 -63 115 -80 58 -30 132 -43 138 -24 2 6
32 19 68 31 63 21 65 22 116 106 l53 84 0 152 c0 175 -15 152 120 174 70 11
78 15 127 63 l53 50 0 186 0 186 198 53 c319 86 321 86 389 141 35 28 71 67
82 88 11 21 27 44 35 51 9 8 16 22 16 32 0 10 14 47 32 83 31 63 32 64 149
130 l117 66 79 141 c43 78 96 192 118 253 39 108 41 111 73 114 18 2 30 7 27
11 -2 5 21 20 53 34 l59 25 31 84 32 85 -48 84 c-27 46 -81 138 -121 205 l-71
121 0 110 0 111 54 92 c37 62 69 136 101 233 26 78 53 150 62 159 8 9 62 49
119 89 l104 72 0 107 0 108 -41 33 c-106 88 -129 115 -129 151 0 42 3 45 151
138 75 46 143 99 189 145 l71 72 -15 112 c-21 150 -21 151 9 151 15 0 38 6 54
14 15 8 63 24 106 35 73 18 83 24 149 89 39 38 108 99 154 136 l82 68 0 104
c0 75 -4 114 -15 134 l-16 30 -319 0 c-298 0 -320 1 -320 18 0 25 27 182 31
186 2 2 54 31 114 66 110 62 231 147 272 192 14 15 34 71 58 163 33 126 77
291 91 338 3 10 48 39 104 67 111 56 98 36 169 252 l32 97 117 102 c154 134
191 205 247 461 15 68 40 148 55 178 32 65 160 382 171 425 4 17 28 83 53 148
25 64 64 172 87 240 23 67 48 130 56 139 8 9 16 31 17 50 4 47 4 46 26 53 27
8 55 -9 69 -42 10 -24 6 -51 -29 -183 -23 -85 -68 -257 -101 -381 l-59 -227 0
-196 c0 -229 -8 -213 125 -240 l80 -16 51 53 c49 49 54 60 104 212 29 88 104
300 167 470 112 303 116 311 166 363 l51 52 153 0 c156 0 303 20 333 45 8 7
25 16 37 19 21 7 44 49 49 95 7 53 46 161 94 255 49 98 50 101 50 193 0 78 -3
96 -19 112 -42 42 -109 69 -237 96 -72 15 -136 30 -142 34 -20 12 23 135 89
251 35 62 68 114 74 116 5 2 82 19 170 37 l160 32 32 60 c18 33 33 68 33 78 0
10 -13 63 -30 119 -25 85 -30 118 -30 209 l0 109 145 0 c80 0 145 -4 145 -9 0
-5 -14 -43 -31 -84 l-30 -76 3 -333 3 -333 43 -175 c51 -204 71 -256 130 -324
24 -28 72 -94 107 -146 50 -74 66 -108 75 -155 11 -59 10 -63 -39 -208 l-51
-148 0 -197 0 -198 -33 -56 c-19 -30 -94 -126 -168 -213 -74 -87 -158 -187
-187 -222 l-52 -63 17 -120 17 -120 47 -46 c38 -37 52 -45 71 -41 49 13 98 70
192 225 82 136 106 187 166 351 67 184 70 195 70 281 0 143 14 156 162 148 63
-3 80 -8 121 -36 l47 -33 0 -133 0 -133 35 -36 c20 -21 50 -44 68 -53 18 -9
45 -27 60 -40 16 -13 36 -24 45 -24 9 0 42 -12 72 -26 60 -29 109 -32 144 -8
19 12 25 29 35 102 22 163 10 145 114 178 60 19 101 38 119 56 26 27 27 31 22
110 -3 46 -1 88 3 95 5 7 86 18 223 29 l215 17 133 98 c149 112 137 108 301
84 96 -15 109 -14 188 2 95 20 89 14 161 143 32 58 32 54 89 657 l6 63 52 19
c29 11 89 34 134 51 l81 31 0 53 c0 53 -1 54 -50 87 -44 31 -50 39 -61 89 -6
30 -13 59 -15 65 -11 27 142 212 199 241 l29 16 -6 -189 c-3 -103 -11 -330
-17 -503 l-10 -315 -50 -240 c-39 -182 -64 -275 -105 -386 l-54 -145 0 -118
c0 -117 -1 -120 -41 -215 -64 -147 -91 -235 -159 -511 -61 -247 -66 -260 -142
-412 -43 -87 -82 -158 -86 -158 -5 0 -15 -19 -23 -42 -7 -23 -37 -74 -66 -113
l-52 -72 -17 -237 -17 -237 66 -67 c65 -66 67 -69 82 -147 8 -44 15 -95 15
-113 0 -32 -50 -249 -70 -302 -126 -344 -161 -457 -194 -637 -30 -162 -42
-203 -84 -298 -27 -60 -59 -130 -70 -155 -11 -25 -77 -123 -146 -219 -70 -95
-131 -183 -136 -195 -5 -11 -24 -100 -41 -196 -24 -135 -39 -190 -64 -240 -30
-59 -67 -170 -139 -411 -22 -73 -26 -104 -26 -222 0 -113 3 -139 15 -143 34
-13 61 7 110 83 28 43 102 148 166 233 64 86 135 192 159 235 108 197 140 258
290 555 88 173 185 360 217 414 54 93 62 101 117 129 72 36 76 33 76 -86 0
-69 -15 -161 -71 -438 -39 -193 -86 -401 -105 -463 -109 -345 -144 -457 -159
-506 -8 -30 -45 -231 -80 -447 l-65 -391 -89 -219 c-192 -471 -243 -579 -332
-703 l-82 -115 -19 -105 -18 -105 36 -52 c26 -38 43 -53 60 -53 12 0 35 -5 51
-11 15 -6 58 -12 95 -14 l67 -2 51 50 50 49 0 167 c0 191 6 216 98 378 78 138
141 269 340 698 l186 400 195 580 196 580 84 51 84 52 34 83 c71 174 127 276
231 416 l106 143 101 56 c55 31 114 67 131 80 18 13 92 101 165 196 222 289
462 590 481 605 7 6 93 17 192 26 l178 15 33 32 c40 39 41 43 55 310 15 297
-3 258 158 339 95 48 162 90 219 138 l82 69 115 22 c64 12 151 25 195 29 44 3
83 9 88 12 5 3 24 27 41 53 l32 46 -51 134 -50 133 3 215 c5 287 0 276 148
361 115 66 115 66 151 136 71 140 65 134 190 187 63 27 226 86 364 132 l250
84 245 0 c298 0 339 -8 443 -88 37 -28 127 -80 200 -116 126 -62 140 -66 302
-95 94 -17 204 -38 245 -46 284 -56 263 -55 869 -55 419 0 600 4 696 15 437
47 508 62 725 155 230 97 568 230 586 230 9 0 63 24 121 52 89 45 108 59 133
98 16 26 40 56 52 67 13 12 96 51 186 87 l162 66 158 0 158 0 99 -67 c93 -63
105 -76 167 -168 l66 -100 51 -205 51 -205 0 -167 0 -167 84 -66 c46 -36 117
-105 157 -153 94 -112 371 -422 395 -444 11 -9 109 -46 218 -82 l199 -66 216
17 c195 15 218 18 241 38 14 12 60 43 103 68 l78 47 269 0 c343 0 327 -6 372
133 l33 100 102 68 c88 60 103 74 113 106 27 98 26 103 -38 216 -115 203 -108
178 -121 472 -7 143 -14 281 -18 308 l-6 47 184 0 c184 0 184 0 289 35 l105
35 68 100 67 100 0 254 c0 234 1 255 18 259 9 3 47 11 84 18 61 11 72 18 119
65 l51 52 34 338 34 338 -32 33 c-17 18 -91 76 -165 130 l-133 98 -140 192
-140 191 0 132 0 133 52 69 c58 79 121 224 108 248 -5 8 -43 55 -85 105 -42
49 -78 101 -81 115 -3 14 -10 42 -16 64 -5 21 -7 40 -5 43 3 2 78 9 166 14
241 15 228 11 301 103 l62 78 51 -6 c28 -4 60 -13 72 -19 54 -29 151 -174 282
-421 129 -242 137 -254 221 -338 l87 -88 105 0 c72 1 113 5 130 15 19 11 67
14 201 15 l176 0 33 -48 c41 -58 220 -242 235 -242 6 0 32 22 58 48 l47 48 0
110 c0 234 32 345 151 526 35 53 99 151 141 217 71 111 84 125 170 189 51 37
115 81 142 97 27 16 69 48 92 71 l44 42 0 149 c0 148 0 150 26 174 38 36 43
49 78 203 l31 141 40 15 c22 8 45 18 51 22 11 7 5 56 -67 526 l-23 152 32 78
c18 43 32 83 32 89 0 5 -12 32 -26 59 -26 49 -105 237 -101 241 3 2 293 33
313 33 7 0 29 14 49 31 l35 31 0 274 0 273 33 18 c25 13 92 21 305 34 l273 18
50 31 49 32 0 141 c0 201 -16 241 -199 492 l-139 190 -166 64 c-222 87 -231
96 -253 250 -19 130 -25 116 82 158 52 20 96 49 173 112 l102 85 0 151 0 151
-49 114 c-27 63 -48 116 -46 118 2 2 32 -2 67 -8 67 -12 97 -23 338 -124 86
-36 245 -94 353 -130 l196 -66 145 0 144 0 70 86 c52 63 77 106 97 160 15 41
35 79 45 84 22 12 160 13 177 2 7 -4 19 -41 28 -81 19 -90 20 -93 93 -164 l59
-59 186 18 185 17 49 -31 c26 -17 107 -83 178 -146 72 -64 139 -118 150 -121
11 -3 54 3 95 13 l74 17 48 195 c27 107 52 198 56 202 4 4 64 0 132 -10 l123
-17 11 -43 c8 -30 45 -86 123 -186 l111 -143 136 -69 c85 -42 136 -74 136 -84
1 -8 15 -129 33 -268 l33 -253 70 -69 69 -69 75 15 c47 10 81 23 91 34 9 11
38 76 63 145 l46 125 0 145 0 145 26 -6 c94 -24 100 -28 183 -126 79 -94 115
-125 213 -181 l47 -27 218 0 218 -1 34 -49 c26 -39 48 -57 104 -85 71 -36 71
-36 199 -34 84 1 133 -3 142 -10 8 -7 38 -44 68 -83 51 -68 57 -72 191 -139
148 -75 277 -129 305 -129 10 0 47 29 82 65 64 65 65 65 120 65 32 0 72 -8 97
-19 45 -21 58 -37 178 -216 42 -62 84 -119 93 -128 10 -8 66 -21 130 -30 l113
-16 50 30 49 31 85 -12 85 -12 85 -118 c46 -65 90 -120 97 -123 23 -8 158 -30
162 -26 2 2 25 69 51 149 26 80 72 193 101 251 29 59 60 137 68 173 l16 67
-49 98 c-45 88 -51 109 -65 219 -9 66 -16 136 -16 154 l0 34 98 16 97 15 100
-50 c66 -33 129 -56 185 -68 l85 -17 100 50 100 51 128 5 c162 5 177 2 177
-41 1 -19 22 -74 53 -132 56 -107 58 -110 174 -150 48 -17 56 -17 115 -3 l63
14 3 57 c2 47 -2 66 -29 119 -18 35 -40 101 -50 148 l-18 85 34 35 c28 29 36
49 50 119 l17 83 -52 53 c-43 43 -97 77 -282 175 -126 67 -241 133 -257 145
-58 49 -80 112 -132 373 -27 136 -53 256 -59 267 -28 60 -30 102 -10 235 15
99 20 183 20 333 l0 201 -104 105 c-91 93 -110 119 -156 211 -43 88 -66 119
-136 190 l-83 85 -35 120 c-29 102 -117 355 -159 460 -7 17 -48 88 -92 159
-68 111 -90 137 -155 189 -41 33 -119 103 -172 156 l-98 96 0 113 c0 135 -6
120 161 382 104 162 132 199 234 300 l115 115 0 133 c0 104 -4 142 -17 169
-11 24 -57 66 -152 137 -135 102 -138 103 -281 151 -80 26 -150 53 -155 60 -6
7 -24 67 -40 134 l-29 121 -96 93 c-52 50 -104 99 -115 107 -218 167 -233 181
-283 265 l-50 83 18 109 c11 59 26 141 35 182 l15 75 -37 40 c-21 21 -51 50
-66 64 -27 24 -28 27 -25 115 l3 91 79 32 c79 32 105 56 106 97 0 10 -27 73
-61 140 -33 67 -85 194 -115 282 l-54 159 0 137 0 137 -50 116 c-44 104 -60
128 -150 233 l-100 116 0 107 0 108 34 16 c19 9 47 16 63 16 15 1 128 14 251
29 162 21 228 33 241 45 10 9 81 38 157 65 227 79 224 78 280 168 l49 78 5
175 5 175 79 15 80 14 152 153 c84 84 157 153 162 153 5 0 43 -7 83 -16 77
-17 75 -16 233 -148 l46 -39 186 18 186 18 71 -71 c51 -49 86 -74 118 -85 l47
-15 66 67 67 68 132 32 c73 19 164 49 204 67 83 39 77 25 93 224 7 74 15 139
20 144 5 4 88 16 186 25 l178 16 35 49 c34 47 34 49 22 95 -7 25 -17 51 -24
58 -7 7 -77 41 -157 77 l-145 64 -205 26 c-404 52 -515 66 -542 72 -26 5 -28
9 -28 54 0 43 -48 189 -70 214 -5 4 -60 23 -122 40 -98 28 -125 40 -182 84
-51 39 -93 59 -167 84 l-99 32 0 102 0 103 46 68 c26 37 83 115 127 173 44 58
80 111 81 119 1 9 -32 25 -94 46 l-94 31 -48 82 c-40 67 -66 97 -155 172 -75
63 -145 137 -235 248 -177 215 -174 213 -262 246 -62 23 -76 33 -76 50 0 11 7
104 15 206 8 102 15 199 15 216 l0 31 -270 118 -270 118 0 48 c0 45 6 58 85
168 l85 120 0 103 c0 96 -3 111 -35 188 l-35 85 0 210 c0 204 1 216 35 369 34
152 37 161 85 226 l51 68 -3 119 -3 118 -116 3 -116 3 -16 33 c-21 45 -50 187
-40 196 4 4 46 20 93 35 47 15 89 31 94 36 7 6 65 299 66 331 0 4 22 18 48 30
27 13 98 59 158 102 99 71 122 95 257 259 136 167 147 184 147 221 0 47 -22
239 -46 399 l-16 109 67 100 c36 55 106 179 154 277 83 168 88 181 95 261 4
47 18 186 32 309 31 284 35 688 8 745 -10 20 -52 62 -100 101 l-84 66 0 254 0
254 31 78 c17 45 45 154 65 258 32 171 34 191 34 403 l0 224 -35 116 c-20 64
-46 140 -59 167 -236 503 -237 506 -342 646 l-101 136 14 94 c19 128 17 263
-4 310 -15 34 -26 42 -124 85 -60 25 -113 51 -117 58 -5 6 -15 70 -21 141 -12
137 -38 305 -52 341 -12 33 -160 120 -217 129 -26 4 -50 11 -53 17 -3 5 -73
16 -155 25 -93 10 -155 21 -165 30 -9 7 -39 60 -67 116 -29 59 -79 139 -118
187 -49 61 -92 133 -151 253 -61 123 -103 192 -154 257 l-71 88 -117 31 c-271
73 -247 63 -320 135 l-67 66 -517 0 c-421 0 -534 3 -609 16 -51 8 -101 17
-110 20 -17 5 -34 52 -68 184 -9 33 -27 60 -69 101 l-56 56 -90 12 c-49 7
-101 14 -115 17 -21 4 -53 -16 -160 -96 -73 -55 -134 -100 -134 -101 -1 0 -75
-9 -166 -19 l-165 -17 -305 33 c-191 21 -318 40 -341 50 -34 15 -38 22 -72
127 -20 62 -64 249 -97 417 -33 168 -65 319 -71 336 -7 24 -46 60 -147 140
-75 60 -236 190 -357 288 -121 99 -225 183 -231 188 -7 5 -61 -6 -133 -27
-117 -34 -129 -35 -283 -35 -125 0 -180 4 -252 20 -193 44 -225 49 -346 59
-356 30 -353 30 -364 -37 -12 -65 -16 -71 -49 -76 -18 -3 -117 -10 -222 -16
-182 -11 -362 -39 -482 -75 -40 -12 -53 -23 -79 -63 -31 -47 -32 -54 -48 -248
-19 -225 -21 -204 49 -519 l35 -159 -15 -80 c-8 -44 -17 -81 -19 -83 -2 -2
-56 -12 -120 -22 l-117 -17 -99 -99 -100 -100 0 -203 0 -204 -28 -25 c-16 -13
-61 -44 -102 -68 l-72 -43 -42 19 c-45 20 -136 25 -153 8 -7 -7 -8 -24 -3 -47
23 -109 22 -119 -9 -132 -31 -13 -141 -121 -141 -139 0 -6 -13 -25 -30 -44
-22 -25 -33 -54 -45 -113 -9 -43 -19 -82 -21 -85 -4 -7 -57 -3 -185 15 l-85
13 -135 100 -134 101 -100 17 -100 18 -118 -77 c-142 -92 -377 -211 -455 -231
-31 -8 -91 -16 -132 -17 l-75 -3 -16 80 c-9 44 -39 133 -68 200 l-53 120 -89
70 c-49 39 -123 104 -165 146 -73 73 -77 80 -125 205 -30 78 -77 239 -120 409
-81 325 -68 299 -272 531 -110 125 -154 167 -268 252 -120 90 -138 108 -154
148 -9 25 -15 47 -13 49 2 2 33 0 68 -6 36 -5 112 -16 170 -24 58 -8 132 -19
165 -24 69 -10 64 -13 178 126 52 64 59 78 72 148 8 42 15 81 15 87 0 5 -23
32 -51 59 -41 39 -64 53 -122 70 -40 11 -112 33 -162 48 l-90 28 3 48 c1 27 7
65 12 86 l10 37 98 12 c53 7 105 16 115 21 36 20 21 69 -63 202 -54 85 -80
137 -80 157 0 16 7 80 16 141 l15 113 73 90 c115 144 156 202 156 219 0 8 -9
35 -19 59 -14 34 -45 67 -130 138 l-111 93 0 94 c0 86 3 99 30 148 l30 54 0
243 0 244 -53 52 c-31 31 -67 56 -88 61 -19 5 -131 35 -249 66 l-215 57 -71
70 -70 69 -105 -10 c-57 -5 -171 -13 -254 -16 -129 -5 -157 -3 -199 12 l-48
18 -50 150 -50 150 -87 90 -88 90 -63 160 -64 160 -16 248 c-13 184 -20 251
-31 261 -8 7 -85 41 -171 76 -139 55 -162 68 -200 109 -200 215 -325 348 -393
417 l-80 82 -141 46 c-138 45 -146 46 -266 46 -162 0 -158 3 -158 -151 0 -63
-7 -234 -17 -381 -19 -299 -11 -277 -98 -255 l-50 13 -29 75 c-15 41 -46 123
-67 183 l-39 109 0 238 0 238 -84 50 -84 51 -147 0 -148 0 -176 -51 c-97 -28
-199 -58 -227 -66 l-52 -15 -76 46 c-104 63 -161 83 -294 101 -63 9 -155 25
-206 35 -108 23 -181 24 -446 4 -273 -19 -260 -20 -260 16 0 16 -19 66 -42
111 -46 90 -63 102 -155 115 -37 5 -53 3 -59 -7z m-641 -1994 c26 -44 63 -110
82 -147 40 -77 39 -78 -57 -78 -49 0 -74 7 -135 36 -73 36 -75 38 -69 68 3 17
10 66 16 109 5 43 12 83 16 88 3 6 27 9 52 7 46 -3 46 -3 95 -83z m17806
-18671 c54 -91 54 -94 1 -166 -47 -65 -49 -65 -111 -76 -205 -35 -209 -33
-209 108 l0 97 37 36 36 37 113 0 112 0 21 -36z m-34279 -6560 c0 -25 -60
-262 -109 -429 l-58 -200 -34 0 -33 0 -13 80 c-7 44 -16 145 -19 225 l-6 145
-44 86 c-24 47 -44 88 -44 92 0 4 81 7 180 7 99 0 180 -3 180 -6z m-164 -831
c18 -45 55 -120 82 -165 37 -63 52 -100 61 -153 7 -38 15 -82 17 -97 6 -28 5
-28 -46 -28 -35 0 -74 10 -123 31 -40 16 -88 37 -108 45 -27 12 -45 32 -72 79
-20 35 -37 67 -37 70 0 3 9 5 20 5 10 0 24 9 30 20 6 11 16 20 22 20 6 0 20 7
30 17 14 12 18 31 18 81 0 84 27 164 55 160 14 -2 28 -25 51 -85z m3377 -2010
c-15 -38 -65 -183 -112 -323 -47 -140 -90 -261 -94 -268 -5 -6 -35 -26 -69
-42 l-60 -30 -254 0 c-140 0 -254 1 -254 3 0 16 33 154 38 158 4 4 81 21 171
39 219 43 244 58 310 190 27 52 54 118 60 146 17 72 63 113 176 158 50 19 95
35 102 35 8 1 3 -22 -14 -66z m-1035 -1372 c14 -8 24 -28 32 -68 6 -32 14 -68
17 -80 4 -18 -1 -25 -21 -33 -68 -25 -72 -24 -105 23 -36 52 -37 60 -16 132
15 52 17 53 44 45 16 -4 38 -13 49 -19z m-400 -749 l-12 -62 -52 0 -53 0 14
46 c7 25 15 47 17 49 5 4 93 32 95 31 1 -1 -3 -30 -9 -64z m-1883 21 c39 -19
41 -27 20 -97 -9 -30 -15 -90 -15 -154 0 -101 1 -105 35 -160 22 -36 40 -85
50 -132 16 -75 16 -75 -7 -92 -13 -10 -29 -23 -35 -28 -8 -7 -13 -38 -13 -86
l0 -76 66 -85 c42 -53 71 -82 80 -79 7 3 18 -2 23 -12 13 -26 35 -151 28 -158
-4 -4 -37 -2 -74 4 -38 6 -87 14 -110 17 -41 6 -43 8 -43 42 0 23 -16 61 -49
118 -40 67 -56 108 -81 211 -17 71 -35 133 -40 139 -5 6 -31 19 -58 28 -95 35
-138 114 -117 219 6 31 16 62 21 70 6 7 50 66 98 131 103 139 153 197 172 197
7 0 29 -8 49 -17z m405 -38 l0 -45 -45 0 c-48 0 -47 -2 -23 63 8 21 17 27 39
27 28 0 29 -2 29 -45z m8957 -2702 c-4 -43 -12 -246 -19 -452 l-12 -373 -39
-38 c-34 -34 -42 -37 -63 -28 -21 10 -24 18 -24 62 0 28 7 101 15 161 10 76
15 204 15 417 0 348 -5 327 84 328 l49 0 -6 -77z m13683 -123 c10 -5 45 -37
77 -71 56 -59 72 -88 88 -157 l7 -32 -85 0 -85 0 -46 62 c-49 66 -52 79 -34
142 19 66 36 78 78 56z m-16524 -1267 c-3 -10 -10 -39 -17 -65 l-11 -48 -64 0
c-35 0 -64 2 -64 5 0 3 14 32 30 65 l30 60 51 0 c43 0 50 -2 45 -17z m77 -640
c31 -119 32 -104 -8 -205 -20 -51 -80 -172 -133 -268 l-97 -175 -58 -19 c-32
-10 -60 -16 -63 -13 -6 6 -2 20 55 176 17 46 31 99 31 117 0 23 5 34 14 34 22
0 23 5 47 156 12 76 25 156 31 177 l9 37 84 0 c71 0 84 -3 88 -17z m-249 -990
c-18 -84 -25 -93 -126 -169 -101 -77 -127 -90 -195 -96 l-38 -3 -3 94 c-3 103
3 117 63 149 28 15 213 49 278 51 25 1 27 -2 21 -26z m-2300 -5668 c24 -10 36
-22 36 -35 0 -28 -21 -124 -29 -133 -8 -8 -119 -12 -127 -4 -7 6 -34 121 -30
125 22 21 85 62 97 62 9 0 33 -7 53 -15z"/>
<path d="M11373 49023 l-33 -17 0 -91 c0 -90 0 -91 33 -122 24 -23 51 -34 110
-46 43 -10 82 -17 86 -17 5 0 32 31 60 69 l51 68 -16 66 c-19 75 -13 71 -134
87 -47 6 -94 13 -105 15 -11 2 -35 -3 -52 -12z"/>
<path d="M20632 48967 c-30 -30 -32 -38 -32 -100 0 -37 3 -67 8 -67 9 0 156
31 158 33 1 1 9 29 18 61 20 70 16 77 -56 95 -63 15 -60 16 -96 -22z"/>
<path d="M10565 48860 c-3 -5 -13 -33 -21 -61 -18 -61 -12 -72 51 -88 71 -18
71 -18 87 67 9 42 14 80 11 85 -6 11 -121 9 -128 -3z"/>
<path d="M34685 48817 c-94 -49 -103 -56 -152 -127 -74 -107 -90 -143 -104
-246 l-12 -91 32 -81 c27 -66 51 -103 129 -194 53 -62 101 -116 106 -120 6 -4
70 -8 141 -8 l131 0 71 73 c60 61 81 93 138 205 l66 134 -16 141 c-9 78 -18
149 -20 157 -3 9 -40 51 -84 94 l-79 79 -119 18 c-65 10 -120 18 -123 18 -3 0
-50 -23 -105 -52z"/>
<path d="M24922 48763 l3 -68 60 -32 c33 -17 64 -28 68 -24 4 4 7 41 5 82 -3
83 -10 90 -96 104 l-43 7 3 -69z"/>
<path d="M13901 48695 c-29 -34 -31 -40 -31 -119 l0 -84 40 -36 c39 -35 43
-36 116 -36 68 0 80 3 129 34 58 38 69 59 81 164 6 49 5 55 -21 82 l-29 30
-127 0 -127 0 -31 -35z"/>
<path d="M15843 48662 c-19 -12 -46 -83 -35 -94 5 -5 27 -8 48 -6 39 3 39 3
42 51 2 26 -1 47 -7 47 -5 0 -15 2 -23 5 -7 3 -18 1 -25 -3z"/>
<path d="M25106 48513 c-12 -34 -16 -85 -16 -188 l0 -141 49 -48 49 -49 49 30
48 30 7 97 c7 103 3 128 -44 238 -16 37 -28 50 -59 62 -58 23 -66 21 -83 -31z"/>
<path d="M13260 48474 c-24 -13 -48 -28 -53 -33 -6 -6 -18 -64 -28 -128 l-17
-118 51 -52 51 -53 106 0 106 0 47 48 47 48 0 87 c0 88 -18 147 -56 178 -8 7
-59 20 -113 29 l-99 17 -42 -23z"/>
<path d="M17175 48172 c-77 -41 -90 -51 -97 -79 -5 -18 -13 -33 -18 -33 -6 0
-10 -38 -10 -88 0 -112 6 -119 106 -116 77 2 86 6 192 79 l72 50 0 87 0 88
-60 30 c-33 16 -67 30 -77 30 -10 -1 -58 -22 -108 -48z"/>
<path d="M35648 47787 c-55 -37 -52 -32 -69 -131 l-13 -76 49 -50 49 -50 103
0 c138 0 143 5 143 133 0 66 -4 99 -15 114 -12 17 -173 94 -193 92 -4 0 -28
-15 -54 -32z"/>
<path d="M40381 47721 c-25 -17 -48 -36 -52 -43 -4 -7 -13 -55 -19 -106 l-13
-94 66 -66 66 -66 78 13 c43 7 85 19 94 27 9 8 28 41 43 73 l26 58 -31 94
c-18 52 -35 98 -39 103 -9 9 -122 35 -155 36 -11 0 -40 -13 -64 -29z"/>
<path d="M19736 47667 c-16 -16 -26 -45 -35 -99 -8 -42 -11 -80 -8 -86 4 -5
34 -15 67 -22 l61 -13 69 68 68 67 -16 47 c-8 25 -20 49 -26 53 -6 4 -44 8
-84 8 -63 0 -76 -3 -96 -23z"/>
<path d="M14122 47626 c-10 -14 -25 -58 -32 -99 l-12 -75 28 -36 c33 -41 36
-42 133 -20 53 12 71 20 71 33 0 24 -27 181 -31 185 -6 5 -115 36 -127 36 -6
0 -19 -11 -30 -24z"/>
<path d="M16787 47413 c-4 -3 -7 -28 -7 -55 0 -42 3 -50 24 -60 37 -16 51 -5
64 53 10 42 10 54 0 61 -16 9 -72 11 -81 1z"/>
<path d="M23839 47378 c-13 -18 -28 -36 -34 -40 -6 -3 -23 -33 -39 -66 l-28
-59 34 -69 33 -69 85 -18 85 -18 80 32 c44 17 83 34 87 37 4 4 15 44 24 89
l16 81 -33 49 c-18 26 -33 50 -35 51 -3 5 -193 32 -226 32 -19 0 -33 -9 -49
-32z"/>
<path d="M22919 47334 c-53 -16 -62 -25 -119 -119 -40 -67 -41 -71 -30 -110
19 -62 24 -65 114 -65 l81 0 32 49 c18 26 39 78 47 115 14 60 21 116 14 116
-2 0 -23 6 -48 14 -38 11 -52 11 -91 0z"/>
<path d="M15932 47177 c-32 -33 -32 -34 -32 -137 l0 -103 41 -56 c60 -81 61
-81 165 -81 l92 0 31 36 c18 19 43 52 56 72 l24 37 -18 82 c-10 46 -25 91 -34
101 -10 10 -17 26 -17 35 0 32 -52 47 -168 47 l-108 0 -32 -33z"/>
<path d="M36731 47110 c-60 -39 -79 -81 -79 -173 -1 -103 22 -142 108 -184 97
-49 122 -51 172 -17 85 59 94 72 108 161 l12 82 -47 65 c-47 64 -50 65 -116
81 -93 21 -107 19 -158 -15z"/>
<path d="M22302 47071 c-8 -4 -12 -19 -10 -32 4 -34 53 -40 63 -8 5 16 2 26
-11 36 -21 15 -24 16 -42 4z"/>
<path d="M14408 47024 c-16 -8 -28 -22 -28 -32 0 -9 -23 -40 -51 -68 l-51 -52
13 -71 c7 -40 17 -78 23 -86 7 -10 51 -21 120 -31 l109 -16 42 44 c65 68 68
77 54 164 -7 42 -19 84 -28 93 -16 18 -140 71 -164 71 -6 -1 -24 -8 -39 -16z"/>
<path d="M35970 46990 l0 -50 54 0 c50 0 54 2 66 30 15 37 12 41 -48 57 -72
19 -72 19 -72 -37z"/>
<path d="M38620 46906 c-116 -24 -172 -41 -220 -67 -64 -33 -66 -36 -117 -134
l-52 -100 -1 -149 c0 -218 6 -235 136 -344 77 -64 147 -110 281 -183 195 -107
194 -107 325 -85 69 11 87 19 179 81 96 65 106 75 170 173 l69 104 0 166 0
167 -53 85 c-52 84 -55 87 -202 186 -139 94 -156 103 -230 118 -101 20 -99 20
-285 -18z"/>
<path d="M39975 46890 c-16 -18 -16 -27 -5 -102 18 -118 18 -118 96 -118 61 0
67 2 95 33 27 28 30 37 25 76 -10 74 -25 94 -81 107 -110 24 -112 24 -130 4z"/>
<path d="M24463 46854 c-4 -11 1 -22 12 -30 25 -18 40 -3 26 25 -14 25 -29 27
-38 5z"/>
<path d="M37473 46703 c-9 -3 -13 -27 -13 -69 l0 -64 50 0 50 0 0 64 c0 49 -4
65 -16 70 -18 7 -53 7 -71 -1z"/>
<path d="M15257 46328 c-19 -24 -57 -79 -86 -122 l-52 -80 3 -100 3 -100 31
-18 c30 -18 36 -18 135 -1 l104 17 68 64 67 65 0 109 c0 114 -5 135 -48 181
-24 25 -31 27 -108 27 l-83 0 -34 -42z"/>
<path d="M9724 46117 c-3 -8 -4 -39 -2 -68 l3 -54 62 -3 c58 -3 63 -1 68 21 4
13 5 43 3 68 l-3 44 -63 3 c-47 2 -64 -1 -68 -11z"/>
<path d="M13819 45911 l-49 -49 0 -115 c0 -80 4 -117 13 -124 6 -5 38 -15 70
-22 l58 -13 78 47 c44 25 82 53 85 61 10 26 7 222 -4 229 -10 6 -165 35 -189
35 -7 0 -35 -22 -62 -49z"/>
<path d="M14940 45763 c-6 -32 -13 -64 -16 -72 -7 -23 17 -41 55 -41 78 0 80
2 106 112 8 32 -8 41 -87 53 l-46 7 -12 -59z"/>
<path d="M11318 45657 l-48 -32 0 -86 0 -87 51 -33 52 -33 47 17 c26 9 63 24
83 32 l37 15 0 88 0 88 -78 32 c-43 18 -83 32 -88 31 -5 0 -30 -15 -56 -32z"/>
<path d="M15589 45393 c-5 -15 -12 -46 -16 -69 -5 -42 -5 -42 33 -53 22 -6 51
-11 67 -11 27 0 27 1 27 64 l0 64 -47 16 c-58 20 -52 21 -64 -11z"/>
<path d="M16476 45405 c-22 -57 4 -98 71 -111 30 -6 32 -4 42 32 24 88 23 89
-45 92 -49 2 -63 0 -68 -13z"/>
<path d="M13196 45320 c-75 -38 -71 -34 -161 -145 l-76 -94 17 -120 17 -119
84 -84 83 -83 123 0 122 0 66 50 c40 30 75 66 88 90 11 22 25 47 30 55 5 8 26
52 47 97 l36 82 -16 69 c-16 63 -23 75 -84 135 l-67 67 -100 15 c-134 20 -141
19 -209 -15z"/>
<path d="M14608 45235 c-26 -15 -32 -30 -53 -148 -7 -35 -4 -42 26 -73 32 -34
34 -34 119 -34 84 0 87 1 118 33 18 18 32 37 32 42 0 4 -14 44 -31 87 -26 65
-36 79 -58 84 -14 3 -39 10 -55 15 -40 12 -66 11 -98 -6z"/>
<path d="M22651 45241 c-18 -12 -7 -57 18 -71 23 -12 38 3 47 48 6 30 5 32
-22 32 -16 0 -35 -4 -43 -9z"/>
<path d="M14935 44899 c-22 -12 -49 -30 -61 -40 -19 -18 -20 -21 -5 -96 8 -43
16 -80 18 -83 2 -2 40 -4 85 -3 80 1 83 2 110 35 15 18 31 43 34 55 8 31 -15
125 -34 141 -25 19 -102 15 -147 -9z"/>
<path d="M37611 44681 c-25 -17 -48 -36 -52 -43 -4 -7 -13 -55 -20 -106 l-13
-93 85 -85 c92 -92 84 -90 182 -61 36 10 42 18 89 112 l51 102 -28 74 c-16 41
-34 80 -40 87 -10 11 -154 42 -195 42 -8 0 -35 -13 -59 -29z"/>
<path d="M34696 44518 c-17 -26 -42 -156 -32 -165 3 -4 25 7 49 23 36 25 44
39 58 89 9 33 14 63 12 68 -2 4 -20 7 -38 7 -25 0 -39 -6 -49 -22z"/>
<path d="M16735 44360 c-11 -17 17 -40 51 -43 25 -2 29 2 29 23 0 22 -5 25
-37 28 -20 2 -39 -2 -43 -8z"/>
<path d="M35516 44316 c-18 -17 -26 -43 -36 -109 -7 -48 -10 -90 -7 -94 12
-11 117 18 126 35 5 9 15 45 21 80 15 72 10 81 -48 100 -30 10 -36 9 -56 -12z"/>
<path d="M12475 44192 c-11 -10 -37 -36 -57 -60 l-38 -42 0 -101 c0 -55 4
-108 10 -118 8 -16 124 -115 157 -135 7 -4 51 1 98 10 81 16 87 19 135 70 l50
53 0 98 0 98 -72 72 -72 73 -96 0 c-75 -1 -99 -4 -115 -18z"/>
<path d="M15952 44112 c-21 -16 -23 -25 -20 -82 l3 -65 80 -17 c44 -9 83 -14
86 -10 10 11 40 153 34 162 -7 11 -88 30 -127 30 -18 0 -43 -8 -56 -18z"/>
<path d="M35267 43963 c-4 -3 -7 -19 -7 -34 0 -22 7 -30 40 -43 22 -9 45 -16
50 -16 13 0 40 54 40 80 0 18 -6 20 -58 20 -32 0 -62 -3 -65 -7z"/>
<path d="M36026 43608 c-9 -12 -16 -28 -16 -35 0 -10 90 -43 119 -43 7 0 11
20 11 50 l0 50 -49 0 c-40 0 -53 -4 -65 -22z"/>
<path d="M39921 43412 c-4 -9 -13 -38 -20 -65 -13 -54 -6 -73 35 -106 25 -20
27 -20 72 -3 l47 18 0 69 0 70 -63 17 c-58 15 -63 15 -71 0z"/>
<path d="M15460 43293 c-101 -102 -107 -111 -120 -167 -15 -73 -11 -77 87 -95
l68 -12 25 28 c203 232 185 199 163 280 l-18 68 -49 3 -49 3 -107 -108z"/>
<path d="M9766 43271 c-46 -47 -48 -51 -41 -88 14 -77 28 -97 79 -111 72 -19
91 -16 125 23 28 32 31 42 31 103 0 79 -10 96 -65 111 -65 18 -78 14 -129 -38z"/>
<path d="M35300 43280 c-23 -14 -3 -57 31 -69 51 -18 69 -14 69 13 0 13 -6 28
-12 33 -23 18 -75 31 -88 23z"/>
<path d="M35766 43261 c-34 -35 -29 -46 21 -55 21 -3 48 -9 61 -12 20 -6 22
-3 22 30 0 29 -5 38 -30 51 -39 20 -42 20 -74 -14z"/>
<path d="M42251 43122 l-64 -97 16 -120 17 -120 69 -68 68 -69 36 17 c25 12
53 43 101 116 l66 99 0 123 0 123 -34 33 c-25 25 -50 37 -98 47 -109 23 -105
25 -177 -84z"/>
<path d="M11910 43139 c-48 -28 -160 -197 -160 -241 0 -18 6 -67 14 -108 15
-79 19 -84 109 -147 37 -25 41 -26 85 -14 57 15 62 19 156 155 l76 108 0 94
c0 87 -1 94 -25 113 -23 17 -80 34 -190 55 -21 4 -41 -1 -65 -15z"/>
<path d="M34738 42873 c-20 -47 -21 -49 -4 -143 9 -52 21 -99 25 -103 9 -9 99
-17 119 -9 19 7 17 230 -4 270 -14 30 -19 32 -65 32 -50 0 -50 0 -71 -47z"/>
<path d="M10757 42593 c-4 -3 -7 -15 -7 -25 0 -13 8 -18 30 -18 31 0 39 17 18
38 -13 13 -31 16 -41 5z"/>
<path d="M7560 42569 c-33 -13 -40 -26 -40 -77 0 -48 14 -57 97 -69 39 -5 43
-4 53 21 25 68 24 71 -28 105 -27 17 -51 31 -53 30 -2 0 -15 -5 -29 -10z"/>
<path d="M9047 42544 c-4 -4 -7 -27 -7 -51 0 -34 4 -43 18 -44 9 0 36 -1 59
-3 57 -3 65 4 61 55 l-3 44 -60 3 c-34 2 -64 0 -68 -4z"/>
<path d="M10287 42312 l-67 -68 0 -120 0 -121 53 -50 c51 -48 54 -50 155 -66
l104 -17 83 50 c92 56 84 40 106 203 l12 88 -59 60 c-32 33 -66 65 -76 70 -13
7 -208 39 -238 39 -3 0 -36 -30 -73 -68z m203 -172 c0 -27 -3 -30 -30 -30 -27
0 -30 3 -30 30 0 27 3 30 30 30 27 0 30 -3 30 -30z"/>
<path d="M13687 42351 c-9 -16 -17 -32 -17 -35 0 -3 28 -20 61 -37 51 -25 64
-28 74 -17 14 15 36 98 29 110 -3 4 -33 8 -67 8 -59 0 -64 -2 -80 -29z"/>
<path d="M43641 42232 c-35 -55 -37 -73 -13 -122 17 -35 17 -35 93 -38 53 -2
79 1 86 10 14 18 37 134 30 152 -3 8 -31 19 -64 26 -32 6 -67 14 -79 17 -17 3
-28 -6 -53 -45z"/>
<path d="M13325 42206 c-24 -32 -25 -36 -14 -87 6 -30 16 -60 21 -66 7 -9 39
-13 93 -13 105 0 115 9 115 103 0 65 -1 67 -27 73 -16 3 -44 10 -63 15 -68 17
-97 12 -125 -25z"/>
<path d="M6541 42146 l-34 -35 13 -91 c7 -51 20 -98 27 -106 15 -15 155 -20
188 -8 33 13 45 58 34 121 -21 117 -22 120 -92 132 -34 6 -71 14 -82 17 -14 3
-30 -5 -54 -30z"/>
<path d="M9435 42006 c-25 -59 -21 -66 36 -66 l50 0 -3 32 c-2 24 -11 37 -36
51 l-32 19 -15 -36z"/>
<path d="M50930 41496 l0 -56 -472 -2 -473 -3 -13 -28 c-7 -15 -14 -40 -15
-55 l-2 -27 485 0 485 0 3 58 3 57 55 0 55 0 -3 53 -3 52 -52 3 -53 3 0 -55z"/>
<path d="M9874 41412 c-16 -9 -65 -44 -108 -77 -73 -57 -83 -69 -182 -233
l-104 -173 0 -104 0 -103 50 -52 50 -52 112 4 113 4 109 64 108 64 102 151
101 150 3 100 c3 97 3 101 -27 145 -67 99 -69 101 -161 116 -108 17 -128 17
-166 -4z"/>
<path d="M8488 41084 c-112 -66 -182 -150 -331 -400 -96 -160 -97 -162 -112
-263 -21 -139 -21 -136 29 -171 51 -35 61 -36 141 -14 86 22 196 94 298 193
85 82 92 93 174 256 70 139 88 184 99 250 8 44 16 90 19 101 3 16 -5 32 -32
58 -37 36 -38 36 -123 36 -83 0 -87 -1 -162 -46z"/>
<path d="M8646 40061 c-12 -14 -16 -32 -14 -67 l3 -49 62 -16 c34 -9 67 -13
73 -9 10 6 30 63 30 87 0 12 -108 73 -128 73 -5 0 -17 -9 -26 -19z"/>
<path d="M8956 39763 c-18 -54 -15 -61 49 -99 41 -23 44 -24 86 -9 24 9 47 21
51 28 10 16 10 69 -1 85 -7 11 -123 42 -158 42 -6 0 -18 -21 -27 -47z"/>
<path d="M7176 39675 c-96 -33 -103 -37 -183 -117 l-83 -83 0 -116 c0 -106 3
-125 30 -197 37 -97 37 -96 133 -171 l77 -61 120 -17 119 -17 148 49 148 48
88 86 87 85 0 139 c0 140 0 140 -31 189 -26 39 -55 63 -167 133 l-136 85 -126
0 c-116 -1 -132 -3 -224 -35z"/>
<path d="M48463 39520 c-19 -11 -60 -61 -98 -119 l-65 -99 0 -149 0 -148 84
-87 c92 -94 111 -103 251 -114 91 -7 155 32 262 160 l83 100 0 106 c0 76 -4
116 -15 138 -9 17 -55 63 -103 103 -48 40 -94 78 -102 85 -14 11 -200 44 -249
44 -9 0 -30 -9 -48 -20z"/>
<path d="M8566 39458 c-3 -7 -9 -28 -15 -47 -21 -65 -17 -72 37 -69 l47 3 3
41 c3 35 -1 45 -24 63 -31 24 -43 26 -48 9z"/>
<path d="M6232 39338 c-25 -27 -34 -49 -48 -117 l-17 -83 54 -54 c54 -53 55
-53 151 -70 l98 -16 43 25 c24 14 49 32 55 40 10 12 42 140 42 168 0 6 -22 32
-49 59 -33 33 -60 50 -82 54 -80 13 -179 26 -196 26 -11 0 -33 -15 -51 -32z"/>
<path d="M8785 39002 l-40 -28 -3 -110 -3 -109 33 -31 c27 -25 50 -34 118 -48
l84 -16 52 34 c40 27 54 43 59 68 3 18 11 56 17 85 10 50 10 54 -22 102 -17
28 -33 51 -34 51 -38 10 -169 30 -191 29 -16 0 -48 -12 -70 -27z"/>
<path d="M4809 38915 c-18 -10 -32 -31 -43 -66 l-17 -52 47 -48 c27 -27 53
-49 58 -49 15 0 149 51 159 60 13 11 -13 117 -32 133 -17 15 -96 37 -128 37
-10 -1 -30 -7 -44 -15z"/>
<path d="M8366 38531 c-10 -15 20 -45 39 -37 17 6 17 7 0 26 -20 22 -31 25
-39 11z"/>
<path d="M46747 38341 l-33 -50 16 -95 c8 -52 20 -99 25 -104 6 -5 44 -14 85
-21 41 -7 83 -15 92 -17 11 -3 36 12 68 42 39 37 50 53 50 78 0 35 -25 175
-33 182 -6 6 -182 34 -214 34 -16 0 -32 -15 -56 -49z"/>
<path d="M45516 37821 c-25 -33 -46 -65 -46 -71 0 -16 51 -119 65 -130 7 -5
47 -17 89 -26 l78 -16 34 33 c34 33 34 33 34 125 0 107 -2 111 -93 130 -105
23 -110 21 -161 -45z"/>
<path d="M8680 37665 l-44 -45 13 -62 c7 -35 16 -67 21 -72 10 -10 116 -36
151 -36 15 0 37 12 57 33 l32 33 -18 84 -17 84 -50 13 c-81 21 -96 17 -145
-32z"/>
<path d="M47485 37454 c-81 -54 -128 -119 -150 -206 -9 -35 -16 -39 -102 -73
-40 -15 -74 -33 -76 -39 -2 -6 5 -108 14 -226 16 -201 20 -220 51 -296 32 -79
36 -84 151 -182 l118 -102 138 0 c134 0 138 1 182 29 46 30 94 78 200 201 35
41 70 81 76 88 17 17 20 34 37 174 l14 117 -33 116 c-22 77 -42 127 -61 151
-16 20 -35 47 -42 59 -16 30 -132 144 -152 150 -17 5 -310 65 -319 65 -4 0
-24 -12 -46 -26z"/>
<path d="M9418 36936 c-39 -26 -74 -38 -180 -61 -73 -15 -142 -31 -154 -35
-11 -5 -72 -46 -135 -92 -63 -46 -133 -92 -155 -102 -21 -11 -65 -39 -98 -64
-57 -44 -58 -46 -53 -86 15 -106 29 -142 78 -203 l49 -63 83 0 c96 0 177 -22
176 -48 0 -10 -13 -48 -28 -87 l-29 -70 34 -67 34 -68 188 0 188 0 32 33 32
33 0 185 0 184 37 55 c20 29 74 92 120 139 l83 86 0 98 c0 89 -3 104 -31 160
-16 34 -34 66 -39 71 -10 10 -125 35 -160 35 -14 0 -46 -15 -72 -33z"/>
<path d="M45497 36323 c-11 -19 -28 -113 -22 -122 3 -6 32 -9 63 -8 l57 2 3
68 3 67 -50 0 c-27 0 -52 -3 -54 -7z"/>
<path d="M45972 36297 l-33 -34 12 -71 c7 -40 17 -79 23 -87 6 -8 46 -22 90
-31 l79 -16 35 35 35 36 -17 78 c-9 43 -21 82 -26 87 -8 8 -121 35 -151 36 -8
0 -30 -15 -47 -33z"/>
<path d="M46410 36295 l-33 -35 27 -54 c39 -77 44 -80 111 -62 31 8 59 17 62
20 8 7 33 117 33 144 0 21 -4 22 -83 22 -82 0 -84 -1 -117 -35z"/>
<path d="M48600 36235 c-5 -14 -13 -44 -16 -66 l-7 -39 67 0 c63 0 67 1 77 27
24 64 10 83 -73 98 -34 7 -39 5 -48 -20z"/>
<path d="M5897 36162 c-17 -18 -27 -39 -27 -58 1 -36 25 -162 33 -170 7 -8
156 17 162 27 6 9 -24 192 -33 200 -10 9 -73 29 -92 29 -9 0 -28 -13 -43 -28z"/>
<path d="M49523 35818 l-43 -32 0 -76 c0 -61 4 -80 18 -92 25 -23 98 -58 120
-58 20 0 146 125 139 137 -3 5 -10 27 -16 51 -11 38 -18 45 -71 72 -74 37 -94
37 -147 -2z"/>
<path d="M7595 35638 c-39 -14 -50 -22 -127 -89 -34 -31 -90 -80 -123 -108
-44 -38 -82 -88 -142 -184 -46 -72 -83 -135 -83 -141 0 -5 14 -31 31 -58 l31
-48 168 0 169 0 73 60 c124 100 144 122 207 217 l61 92 0 104 c0 122 -6 132
-97 153 -68 16 -126 17 -168 2z"/>
<path d="M9276 35081 c-26 -27 -28 -34 -21 -77 15 -101 4 -95 177 -92 l153 3
0 30 0 30 -67 3 c-67 3 -68 3 -68 31 0 32 -17 50 -77 80 -55 27 -64 27 -97 -8z"/>
<path d="M8344 34658 c-28 -29 -72 -89 -99 -132 -50 -85 -51 -94 -24 -189 9
-34 14 -38 33 -33 13 3 57 11 98 17 l75 11 89 89 88 88 -13 83 c-18 120 -17
118 -114 118 l-83 0 -50 -52z"/>
<path d="M46030 34700 c-14 -5 -64 -20 -111 -34 -82 -25 -87 -27 -104 -66 -10
-23 -28 -52 -40 -66 -12 -13 -27 -41 -34 -62 -8 -20 -42 -104 -77 -187 l-64
-150 0 -186 c0 -154 3 -189 15 -199 12 -10 15 -37 15 -121 0 -109 0 -110 -35
-160 -34 -49 -35 -55 -35 -140 0 -71 6 -108 31 -186 32 -102 108 -233 134
-233 8 0 30 -13 48 -30 l35 -30 203 0 c350 0 373 12 463 256 58 159 68 194 86
309 6 38 15 74 19 80 7 9 47 192 86 395 9 47 25 182 35 300 l19 215 -50 85
c-48 81 -56 88 -153 153 l-102 67 -179 -1 c-99 0 -191 -4 -205 -9z"/>
<path d="M7257 34674 c-4 -4 -7 -20 -7 -36 0 -27 3 -29 33 -26 28 3 32 6 32
33 0 25 -5 31 -25 33 -14 2 -29 0 -33 -4z"/>
<path d="M4770 34529 c-51 -50 -54 -55 -71 -138 l-18 -86 34 -51 c33 -50 36
-52 97 -62 173 -29 170 -29 243 24 70 52 79 68 92 172 l6 54 -69 69 -68 69
-96 0 -96 0 -54 -51z"/>
<path d="M7022 34033 c-7 -2 -27 -25 -44 -51 -26 -38 -34 -65 -49 -156 -11
-75 -13 -115 -6 -123 21 -28 53 -12 124 60 l72 72 16 94 c13 77 14 96 3 102
-14 9 -95 11 -116 2z"/>
<path d="M8533 33952 c-24 -13 -63 -65 -148 -197 -63 -99 -115 -187 -115 -196
0 -9 14 -35 31 -59 28 -38 34 -42 62 -36 104 21 102 19 209 162 100 134 101
135 114 217 22 134 25 127 -53 127 -45 -1 -79 -7 -100 -18z"/>
<path d="M7790 33880 c0 -45 3 -51 31 -65 17 -9 34 -14 37 -10 7 7 31 92 32
113 0 8 -16 12 -50 12 l-50 0 0 -50z"/>
<path d="M5495 33720 c-13 -22 -34 -112 -28 -125 9 -24 65 -37 104 -24 52 18
59 27 59 79 l0 48 -47 11 c-27 7 -55 14 -65 17 -9 3 -19 0 -23 -6z"/>
<path d="M7979 33617 c-130 -98 -244 -217 -306 -318 -28 -46 -135 -219 -237
-384 l-187 -300 7 -50 c3 -27 11 -81 17 -120 l12 -70 52 -17 51 -17 104 35
103 35 78 95 c92 112 88 103 260 509 131 310 135 323 147 425 6 58 14 115 17
128 4 18 -1 25 -28 36 -58 23 -73 26 -90 13z"/>
<path d="M10152 33583 c-137 -165 -241 -306 -377 -516 -85 -131 -155 -243
-155 -247 0 -5 14 -31 30 -57 l30 -47 0 -168 0 -168 28 -11 c15 -6 48 -13 74
-16 47 -6 48 -5 134 68 48 41 91 77 96 80 5 3 47 97 95 210 59 140 96 245 119
337 18 73 38 141 46 150 7 9 46 56 86 105 39 48 72 89 72 91 0 2 -4 16 -9 32
-6 16 -21 68 -36 117 l-26 87 -83 0 -84 0 -40 -47z"/>
<path d="M6065 33578 c-3 -7 -11 -44 -19 -82 -14 -69 -14 -70 16 -145 16 -42
35 -81 41 -88 13 -13 158 -45 167 -37 2 3 12 56 21 117 l17 112 -34 52 c-23
36 -43 55 -61 59 -16 3 -44 10 -63 15 -49 12 -80 11 -85 -3z"/>
<path d="M9444 33377 c-3 -8 -4 -45 -2 -83 3 -61 5 -69 23 -69 15 0 22 11 32
60 20 95 18 105 -17 105 -17 0 -33 -6 -36 -13z"/>
<path d="M50516 32971 c-49 -17 -71 -38 -124 -117 l-28 -42 14 -86 c8 -48 12
-90 8 -93 -3 -3 -23 6 -43 20 -32 22 -47 26 -101 24 -67 -3 -86 -15 -78 -52 3
-11 10 -48 17 -82 l12 -63 81 0 c50 0 111 -8 157 -20 44 -12 107 -20 156 -20
l82 0 101 86 100 85 0 107 0 108 -63 62 c-55 55 -71 65 -123 76 -103 23 -118
24 -168 7z"/>
<path d="M5744 32816 c-43 -29 -63 -56 -147 -196 -53 -89 -97 -169 -97 -179 0
-9 7 -27 16 -39 14 -20 24 -22 102 -22 l87 0 97 98 97 97 16 80 c24 129 25
128 -49 164 -35 17 -65 31 -67 31 -3 0 -27 -15 -55 -34z"/>
<path d="M6153 32810 c-24 -10 -29 -26 -14 -48 5 -9 24 -12 52 -10 38 3 44 6
47 27 6 38 -34 52 -85 31z"/>
<path d="M4205 32650 l-29 -30 13 -63 c7 -34 16 -66 20 -70 5 -4 37 -7 72 -5
l64 3 18 74 c22 86 19 92 -55 110 -66 16 -71 15 -103 -19z"/>
<path d="M51664 32516 l-51 -34 -17 -103 -17 -102 42 -71 c66 -113 54 -106
199 -106 l128 0 36 37 36 37 0 137 0 136 -35 35 c-32 31 -43 35 -124 46 -49 7
-102 15 -117 18 -22 4 -41 -3 -80 -30z"/>
<path d="M48768 32495 c-20 -11 -29 -27 -36 -62 -26 -123 -26 -119 8 -173 l32
-50 89 0 88 0 35 51 34 50 -18 80 c-10 44 -21 83 -24 86 -7 8 -127 32 -156 32
-14 0 -37 -6 -52 -14z"/>
<path d="M6099 32379 c-33 -32 -34 -38 -9 -131 12 -41 35 -52 136 -64 48 -6
52 -5 83 27 33 36 33 34 10 121 -12 45 -16 48 -93 64 -85 19 -91 18 -127 -17z"/>
<path d="M7908 32339 c-41 -24 -9 -80 36 -63 21 8 21 60 0 68 -19 7 -15 8 -36
-5z"/>
<path d="M10707 32344 c-4 -4 -7 -29 -7 -56 l0 -49 48 3 47 3 0 50 0 50 -40 3
c-23 2 -44 0 -48 -4z"/>
<path d="M5210 32264 c-74 -41 -141 -81 -149 -89 -14 -14 -71 -148 -71 -168 0
-7 29 -78 64 -157 l63 -145 84 -52 84 -53 125 0 c113 0 137 3 240 33 l115 34
86 87 87 88 16 82 16 81 -35 70 c-33 67 -39 73 -137 137 l-103 67 -154 31
c-85 16 -164 30 -175 30 -12 0 -82 -34 -156 -76z"/>
<path d="M4058 32077 l-48 -32 0 -106 0 -107 38 -39 c52 -56 70 -63 162 -63
93 0 107 6 166 67 l44 45 0 80 0 81 -53 54 -54 53 -104 -1 c-100 0 -106 -2
-151 -32z"/>
<path d="M9002 32024 c-67 -17 -60 -13 -170 -104 -86 -71 -93 -79 -126 -158
-20 -46 -33 -88 -30 -94 3 -5 51 -32 107 -59 l100 -49 178 0 177 0 106 87 106
87 0 86 0 86 -68 51 c-66 49 -71 51 -179 67 -131 19 -132 19 -201 0z"/>
<path d="M49802 32005 l-52 -36 0 -98 c0 -122 8 -132 127 -156 l83 -16 47 32
c27 18 49 33 51 35 7 5 31 121 32 150 0 51 -50 89 -142 108 -42 9 -81 16 -85
16 -5 0 -32 -16 -61 -35z"/>
<path d="M7084 31892 c-35 -18 -194 -179 -269 -271 -29 -36 -89 -111 -134
-166 -44 -55 -81 -104 -81 -108 0 -4 -29 -49 -65 -99 -38 -52 -64 -98 -61
-107 3 -9 10 -51 17 -93 6 -43 17 -82 23 -87 6 -5 45 -16 86 -24 l75 -15 35
26 c72 55 163 136 235 209 66 67 87 99 190 290 l116 215 -3 106 -3 106 -66 16
c-59 15 -69 15 -95 2z"/>
<path d="M45058 31873 c-30 -32 -38 -51 -51 -118 -8 -44 -13 -83 -10 -88 2 -4
32 -21 66 -38 l61 -31 53 16 c51 16 55 20 88 87 l35 69 -16 63 c-9 34 -21 65
-27 69 -7 4 -46 8 -87 8 -75 0 -77 -1 -112 -37z"/>
<path d="M10376 31860 c-21 -53 -21 -56 12 -68 68 -26 71 -26 87 12 24 57 20
71 -24 84 -55 17 -57 16 -75 -28z"/>
<path d="M8352 31858 c-20 -20 -15 -33 52 -115 61 -75 67 -80 121 -92 31 -7
58 -11 61 -8 2 2 -8 17 -23 33 -15 16 -42 65 -59 109 l-32 80 -54 3 c-33 2
-58 -2 -66 -10z"/>
<path d="M9778 31854 c-26 -14 -28 -19 -28 -82 0 -63 2 -71 32 -101 38 -39 50
-44 140 -61 l68 -12 50 32 c27 18 50 35 50 39 0 26 -30 155 -38 163 -9 9 -183
38 -227 37 -11 0 -32 -7 -47 -15z"/>
<path d="M48996 31651 l-49 -49 13 -82 c8 -55 18 -83 29 -89 9 -5 50 -15 92
-22 l76 -12 46 32 47 32 0 88 c0 74 -3 91 -19 106 -16 14 -136 45 -176 45 -6
0 -33 -22 -59 -49z"/>
<path d="M10657 31584 c-24 -13 -28 -20 -25 -52 3 -35 6 -38 78 -68 41 -17 80
-29 86 -27 12 4 40 90 33 97 -15 13 -120 66 -131 66 -7 -1 -26 -8 -41 -16z"/>
<path d="M8059 31279 c-67 -85 -73 -99 -94 -266 l-6 -53 54 0 55 0 49 68 c41
55 55 87 81 179 18 61 32 114 32 117 0 8 -70 36 -90 36 -10 0 -45 -35 -81 -81z"/>
<path d="M5810 31145 c-10 -12 -10 -27 0 -76 15 -69 30 -83 106 -100 48 -11
55 -10 86 10 73 47 71 41 52 115 l-16 66 -108 0 c-84 0 -110 -3 -120 -15z"/>
<path d="M6543 30648 c-10 -13 -33 -96 -33 -118 0 -7 38 -10 118 -8 l117 3 3
53 c2 31 -2 60 -9 68 -15 19 -182 20 -196 2z"/>
<path d="M6165 30503 c-25 -12 -134 -136 -159 -180 -9 -17 21 -126 40 -140 9
-6 47 -17 86 -23 l70 -12 42 42 c22 23 53 61 68 84 26 38 28 48 28 144 l0 102
-72 -1 c-44 0 -85 -6 -103 -16z"/>
<path d="M50434 30039 c-14 -24 -33 -114 -25 -122 5 -5 19 -7 32 -5 19 2 28
14 42 58 9 30 15 61 12 67 -5 16 -51 17 -61 2z"/>
<path d="M6994 29413 c-13 -14 -61 -80 -106 -146 -46 -66 -113 -163 -150 -215
-38 -53 -68 -102 -68 -109 0 -12 -74 -158 -120 -238 -10 -16 -31 -57 -48 -90
l-31 -60 16 -75 c8 -41 18 -79 23 -83 4 -5 44 -1 89 9 80 17 81 18 114 68 17
28 44 64 58 81 56 66 108 167 153 295 26 74 60 171 76 215 79 221 110 314 110
328 0 9 -19 21 -46 31 -45 15 -46 15 -70 -11z"/>
<path d="M49427 28183 c-4 -3 -7 -27 -7 -53 0 -39 5 -51 34 -79 27 -26 48 -36
107 -47 41 -8 86 -14 102 -14 24 0 27 4 27 33 0 26 -10 42 -52 83 -45 43 -62
53 -113 63 -33 7 -67 14 -76 17 -8 2 -18 1 -22 -3z"/>
<path d="M6072 28103 c3 -42 6 -48 26 -51 27 -4 57 19 65 49 4 15 -3 23 -30
34 -58 25 -64 21 -61 -32z"/>
<path d="M50826 27928 c-8 -13 -23 -40 -32 -61 -16 -33 -16 -39 -4 -48 8 -5
28 -8 45 -7 34 3 50 29 61 96 7 42 6 42 -24 42 -22 0 -36 -7 -46 -22z"/>
<path d="M5522 27375 l-31 -34 18 -66 c10 -36 20 -67 22 -69 2 -2 39 -17 83
-35 76 -31 81 -32 142 -21 108 18 114 22 114 76 0 40 -7 56 -51 115 l-51 69
-108 0 -108 0 -30 -35z"/>
<path d="M47350 27290 c-92 -46 -100 -53 -213 -181 l-117 -134 0 -138 0 -139
85 -102 c84 -101 86 -103 167 -134 46 -17 133 -40 193 -52 61 -11 137 -25 170
-31 33 -6 68 -13 77 -16 32 -8 148 122 221 249 l67 115 0 126 0 126 -46 93
c-26 51 -52 97 -58 103 -6 6 -52 39 -102 73 -86 57 -98 62 -188 77 -136 22
-150 20 -256 -35z"/>
<path d="M5904 27198 c-10 -16 21 -35 79 -48 45 -9 53 -9 64 7 7 9 13 25 13
35 0 16 -9 18 -74 18 -46 0 -78 -4 -82 -12z"/>
<path d="M46447 27042 c-36 -37 -37 -39 -37 -119 0 -53 4 -84 13 -90 26 -21
158 -66 167 -57 39 40 120 153 120 167 0 21 -35 94 -58 120 -12 13 -31 17 -92
17 -75 0 -76 -1 -113 -38z"/>
<path d="M45661 26665 l-31 -36 0 -129 0 -130 34 -37 34 -37 72 12 c39 7 80
17 91 22 10 6 33 38 50 71 l30 61 -16 101 c-9 56 -17 103 -19 104 -4 4 -176
33 -197 33 -10 0 -31 -16 -48 -35z"/>
<path d="M49938 26483 l-48 -49 -17 -117 -16 -118 89 -90 89 -89 78 0 c71 0
82 3 130 34 48 30 56 41 89 119 l36 85 -16 68 c-16 65 -20 71 -82 120 -67 54
-96 64 -240 81 -43 5 -47 3 -92 -44z"/>
<path d="M48022 26454 c-20 -14 -22 -23 -22 -125 0 -142 9 -162 86 -184 31 -9
63 -15 72 -13 10 2 32 31 50 66 l32 63 -31 92 c-18 51 -36 98 -42 105 -14 18
-117 16 -145 -4z"/>
<path d="M47528 26264 c-47 -24 -69 -41 -72 -57 -13 -59 -26 -157 -26 -189 0
-29 7 -42 35 -67 33 -28 42 -31 106 -31 39 0 79 4 89 10 28 15 40 65 40 169
l0 97 -52 51 -53 51 -67 -34z"/>
<path d="M7572 23958 c-21 -58 -17 -64 48 -81 60 -15 61 -15 75 7 7 11 17 33
20 48 8 32 -13 46 -83 55 -46 5 -47 5 -60 -29z"/>
<path d="M5997 23583 c-3 -5 -11 -36 -18 -69 l-13 -62 35 -48 c29 -40 43 -50
84 -61 28 -7 66 -13 86 -13 l36 0 16 81 17 82 -33 46 -33 46 -86 3 c-48 1 -89
-1 -91 -5z"/>
<path d="M6638 20771 l-65 -50 16 -80 c9 -44 21 -84 26 -90 21 -20 109 -61
130 -61 19 0 162 52 169 62 2 2 10 38 19 81 18 83 16 96 -25 134 -21 20 -137
53 -187 53 -10 0 -47 -22 -83 -49z"/>
<path d="M6610 20260 c0 -54 -6 -49 101 -75 33 -8 51 14 53 62 1 35 0 37 -49
49 -27 8 -62 14 -77 14 -27 0 -28 -2 -28 -50z"/>
<path d="M39971 18298 c0 -7 13 -35 28 -63 24 -44 35 -52 96 -77 97 -40 100
-38 64 35 -30 59 -34 63 -98 90 -75 30 -91 33 -90 15z"/>
<path d="M8058 17004 l-68 -34 0 -85 0 -85 70 -35 70 -35 68 34 68 34 18 82
c10 46 14 86 9 90 -7 7 -160 71 -166 70 -1 -1 -32 -17 -69 -36z"/>
<path d="M8985 15331 c-113 -16 -125 -20 -201 -66 -75 -46 -86 -57 -148 -150
-36 -56 -66 -106 -66 -113 0 -7 7 -39 17 -72 15 -56 21 -63 100 -126 l84 -66
69 17 c65 16 76 23 197 129 70 62 169 154 220 203 l92 90 -18 69 -17 69 -75
17 c-91 20 -105 20 -254 -1z"/>
<path d="M8311 14522 c-33 -13 -59 -35 -101 -86 -55 -68 -56 -69 -175 -113
-66 -24 -125 -49 -132 -55 -17 -14 -17 -122 0 -136 6 -5 35 -17 62 -26 131
-44 129 -42 165 -116 l33 -68 -19 -47 c-18 -44 -27 -52 -127 -109 -59 -34
-113 -68 -121 -76 -7 -8 -32 -73 -55 -144 -48 -147 -54 -161 -91 -198 -27 -26
-32 -48 -55 -218 -6 -43 -4 -48 32 -85 63 -66 61 -65 127 -50 33 8 67 22 76
32 10 10 59 88 111 173 74 124 110 171 176 237 49 48 111 125 153 188 l70 107
0 95 0 95 -69 72 c-67 69 -70 75 -100 175 -17 57 -31 110 -31 117 0 11 23 14
108 14 129 0 174 18 225 88 l31 43 -18 34 c-38 70 -48 75 -144 74 -57 0 -102
-6 -131 -17z"/>
<path d="M9276 14419 l-34 -50 16 -50 c9 -27 20 -49 26 -49 5 0 45 14 88 31
65 26 79 36 84 58 3 14 10 41 16 58 5 18 7 37 3 43 -3 5 -42 10 -85 10 l-79 0
-35 -51z"/>
<path d="M10543 14310 c-41 -24 -171 -130 -199 -161 -12 -13 -34 -49 -50 -79
-15 -30 -52 -94 -81 -143 -29 -48 -55 -99 -59 -115 -3 -15 -12 -41 -20 -58
-11 -26 -11 -49 1 -155 23 -191 34 -164 -118 -279 l-134 -100 -33 -121 -33
-120 17 -96 c8 -53 18 -98 21 -101 3 -3 57 -13 120 -22 l114 -16 54 55 c33 35
68 85 90 133 21 42 37 79 37 81 0 3 20 47 44 99 23 51 55 140 70 198 15 58 32
122 37 143 6 21 39 73 76 120 50 61 74 102 96 162 16 44 46 127 68 185 28 78
42 138 55 233 8 70 13 134 11 141 -6 14 -87 36 -130 36 -12 0 -36 -9 -54 -20z"/>
<path d="M14077 13383 c-3 -5 -10 -40 -16 -80 -6 -39 -13 -78 -16 -85 -9 -23
21 -43 47 -31 18 8 25 24 34 79 20 113 19 124 -15 124 -17 0 -32 -3 -34 -7z"/>
<path d="M14428 13204 c-9 -10 -31 -77 -49 -150 l-33 -134 -133 0 c-133 0
-134 0 -203 -35 -66 -33 -75 -43 -172 -171 l-101 -135 13 -97 c20 -149 15
-141 105 -177 l80 -32 3 -64 c2 -53 -11 -121 -82 -401 l-85 -337 -17 -233
c-14 -199 -15 -248 -4 -338 17 -139 22 -150 75 -150 24 0 47 6 53 13 5 6 45
86 87 177 43 91 98 208 122 260 53 112 119 268 138 325 83 253 97 308 125 511
17 116 30 216 30 222 0 6 26 29 58 51 31 21 78 61 103 88 42 43 51 63 94 193
26 80 72 193 101 251 l53 107 -17 51 c-14 46 -26 60 -102 120 -69 55 -98 72
-149 85 -77 20 -73 20 -93 0z"/>
<path d="M9801 12626 c-18 -19 -21 -35 -21 -117 l0 -96 36 -36 c20 -20 42 -34
48 -30 89 51 92 56 109 159 9 54 14 100 12 103 -3 2 -41 12 -84 21 l-80 18
-20 -22z"/>
<path d="M17685 12298 c-11 -6 -22 -14 -25 -18 -3 -4 -50 -37 -105 -73 l-100
-67 -17 -62 c-10 -35 -18 -66 -18 -70 0 -3 23 -29 50 -57 28 -28 50 -59 50
-68 0 -10 -7 -119 -15 -243 -8 -124 -15 -345 -15 -492 l0 -266 65 -81 c36 -45
67 -81 68 -82 11 -5 329 -34 332 -30 3 2 5 25 5 51 0 47 0 47 -45 64 -25 10
-45 23 -45 29 0 7 20 93 45 192 43 173 45 186 45 330 0 128 5 179 36 350 l36
200 -17 152 -18 152 -53 51 -53 50 -93 0 c-51 0 -102 -6 -113 -12z"/>
<path d="M9458 11883 c-8 -10 -22 -47 -31 -83 l-17 -65 40 -37 c39 -37 40 -38
119 -38 l80 0 35 52 c32 47 34 53 21 77 -34 63 -58 81 -130 96 -90 19 -99 19
-117 -2z"/>
<path d="M19085 11081 c-7 -12 17 -73 40 -102 13 -17 48 -34 105 -52 47 -15
107 -39 135 -54 47 -27 50 -31 62 -88 21 -104 26 -97 -92 -130 -57 -15 -109
-31 -115 -35 -6 -4 -18 -43 -28 -88 l-16 -81 67 -303 67 -303 0 -255 0 -256
38 -36 c25 -24 58 -43 102 -56 36 -11 91 -32 124 -46 36 -16 77 -26 105 -26
40 0 51 5 76 33 59 65 65 86 65 224 0 89 6 160 21 233 21 110 20 189 -3 218
-9 10 -15 76 -19 221 -7 223 -14 274 -65 484 -30 125 -38 145 -81 204 -37 51
-71 81 -149 134 -92 61 -115 72 -255 114 -85 25 -159 48 -166 50 -7 2 -15 0
-18 -4z"/>
<path d="M13099 9862 c-50 -13 -84 -32 -142 -75 -41 -32 -82 -66 -90 -75 -13
-16 -142 -467 -174 -612 -8 -36 -21 -78 -28 -95 -8 -16 -21 -92 -29 -169 -10
-96 -20 -144 -31 -156 -9 -10 -22 -57 -30 -111 -21 -138 -20 -150 18 -186 29
-29 43 -33 150 -48 65 -10 119 -16 121 -14 1 2 24 33 51 67 42 57 63 105 185
441 76 208 141 398 145 422 30 198 59 320 90 386 l35 73 -16 77 c-9 43 -21 81
-28 85 -20 14 -160 7 -227 -10z"/>
<path d="M11534 9721 c-28 -17 -54 -71 -54 -112 0 -8 28 -43 63 -77 48 -48 80
-70 136 -92 40 -17 81 -30 90 -30 17 0 71 96 71 126 0 9 -22 44 -49 78 -45 56
-58 66 -131 94 -45 18 -84 32 -88 32 -4 0 -21 -8 -38 -19z"/>
<path d="M17342 9728 c-7 -7 -12 -17 -12 -23 0 -14 72 -85 87 -85 11 0 33 51
33 76 0 6 -21 19 -47 28 -55 19 -47 18 -61 4z"/>
<path d="M19411 9041 c-6 -10 -15 -40 -21 -66 -10 -46 -10 -48 35 -110 25 -35
49 -67 54 -70 14 -8 224 -36 237 -31 6 2 17 31 24 64 12 57 11 62 -9 88 -11
15 -21 33 -21 40 0 29 -88 75 -172 89 -106 19 -115 19 -127 -4z"/>
<path d="M16240 8476 c0 -2 9 -25 19 -50 17 -39 25 -46 62 -56 33 -9 44 -9 50
2 24 38 1 84 -49 98 -38 10 -82 13 -82 6z"/>
</g>
</svg>
