<?xml version="1.0" encoding="utf-8"?>
<!-- Generator: Adobe Illustrator 27.5.0, SVG Export Plug-In . SVG Version: 6.00 Build 0)  -->
<svg version="1.1" id="Layer_1" xmlns="http://www.w3.org/2000/svg" xmlns:xlink="http://www.w3.org/1999/xlink" x="0px" y="0px"
	 viewBox="0 0 750 750" style="enable-background:new 0 0 750 750;" xml:space="preserve">
<g>
	<path d="M640.385,386.681l-1.095-2.92l-2.19-2.92l-2.19-4.015l-2.555-2.19h-2.555l-0.73,0.365l-2.555-0.365l-1.095-2.555
		l-1.095-5.476l-0.73-1.46l-2.92-1.46l-1.825-0.73l-2.19-4.38l0.365-2.19l0.73-4.015l1.095-4.015l1.095-1.46v-2.555l-0.365-0.73
		v-2.19l1.095-1.825l-0.365-5.476v-4.38l-0.73-3.65l-2.19-1.46l-2.92-5.841l-1.095-5.841l-1.46-5.841v-3.285l1.095-1.825l1.46-4.746
		l1.825-5.476v-5.476l1.095-9.491l0.365-8.761l-1.095-2.555l-1.095-6.206l-0.365-3.285l1.095-4.015l-0.73-2.19l-1.46-4.746
		l-2.555-4.38l-0.73-5.841l-2.555-6.571l-1.46-2.92l-0.365-0.73l-0.73-1.217v-0.243l-1.46-2.19l-1.095-1.825l-1.46-3.65h0.365
		l3.285-0.365l1.825-1.095l1.46-3.65l1.825-0.73l-0.052-0.156l3.337-1.669l3.285-4.015l1.46-1.46l1.095-0.365h1.095l2.19-0.365
		v-0.73h0.73l0.365-0.73h0.365l1.095-1.095l1.314-0.657l3.796-1.168l1.752-0.73h0.438l0.73-0.487l1.147-0.478l2.868-0.86
		l0.055-0.219l1.405-0.511l2.19-2.555l0.365-2.555l-0.365-1.825l-0.183-0.091l-0.182-0.639l-0.365-1.825l1.095-0.73l0.456-0.365
		h0.274l1.095-1.095v-2.19l-0.73-1.095l-1.825-1.095l-3.65-1.46l-1.825-1.095l-1.825-3.65l-3.285-1.46h-2.19v1.825l1.095,1.825
		l-0.365,1.46l-2.19,1.825v1.825l0.73,0.73l0.73,0.209v0.156l1.916,0.639l0.161,0.484l-0.272,0.952l-0.833,1.332l-0.243,0.243v0.146
		l-0.365,0.584l-0.913,2.738l-1.278,1.278l-1.095,0.73l-0.146,0.146l-3.504,2.044l-4.38,1.825h-2.19l-1.825-1.095l-3.164-1.704
		l-0.122-0.122l-2.19-1.217l-2.555-1.704l-0.114-0.023l-2.076-1.437l-1.572-0.655l0.112-0.075l-2.92-1.095h-2.555l-0.973,0.73
		h-0.122l-0.365,0.365h-5.476l-4.746-0.365l-0.73,0.365l-2.92,3.65l-0.365,2.19h-1.095l-1.095-1.095l-0.088,0.175l-2.103-1.635
		l-2.92-1.46l-2.92-2.19l-0.365-4.015l-0.365-0.73l-3.65-2.92h-2.19l-2.555,0.365l-2.555-0.365l-0.73-2.555l-0.73-2.555
		l-2.555-2.555h-1.825l-3.285,1.825h-2.555l-4.746-1.46l-8.396-1.825l-4.38-2.19l-5.476-3.65l-2.92-2.19l-2.92-1.825l0.73-4.38
		l-1.095-2.555l-1.46-0.73h-3.285l-2.92,0.365l-0.73-2.19l-1.46-1.095h-3.285l-1.095,0.365h-3.65l-1.825-0.365h-4.746l-2.19,0.365
		h-4.38l-1.46-1.46l0.365-1.825l-0.365-1.095h-1.825h-4.38h-6.571l-1.825-0.365l-3.285-1.46l-4.746-1.46h-2.555l-3.65-0.73
		l-1.095,0.122l-1.095-0.122l-1.095,0.365l-9.529,0.307l-2.152-0.307h-2.19l-0.274,0.274l-0.821,0.091l-10.586,0.73l-7.666,1.095
		l-1.825,0.73l-3.285,0.365l-4.746,1.095l-6.571,1.095l-2.555,0.73l-6.206,2.92l-3.497,2.226l-0.948,0.158l-1.396-0.558h-2.19
		l-1.095,0.73l-3.285,0.365l-3.285,0.365l-1.095-1.095l-1.825-0.365l-1.095,1.095l-2.92,1.46l-3.285,1.46l-4.38-0.365l-5.841,1.095
		l-1.46,1.095l-1.46-0.365l-2.92-3.65l-0.892-0.243l0.162-0.122l-1.278-0.183l-2.008-0.548l-0.365-1.095l2.555-0.73v-2.92
		l-0.365-0.73v-2.19l0.365-0.365l1.825-0.73l1.825-1.095v-2.19l-0.365-0.73l-1.825-2.19l-1.46-0.73v-0.73l-1.825-2.19l-2.19-1.46
		l-0.199-0.033l-0.531-0.332l-0.786,0.112l-0.674-0.112l-1.095,0.365l-0.73,1.095l-1.46,6.571l-0.73,0.365v-2.92l-1.095-1.46
		l-1.825-1.825l-1.095,0.365l-1.46,2.19h-2.92l-0.73,1.095l-0.365,4.38l-0.73,2.555l-1.46-0.365l-1.46-1.095h-2.19l-0.365,0.365
		v1.825l0.73,2.92l-4.38-0.365l-1.825-1.095h-1.825l-0.365,0.365l-2.555,0.73l-4.015-1.46h-3.65l-0.348-0.29l-0.017-0.075
		l-1.825-1.46l-2.555-2.555l-1.825-0.365l-1.493,2.091l-0.755,0.503l-3.593,0.327l-3.65,2.92l-4.38,2.555l-5.111,0.73h-3.285
		l-3.285-1.46l-2.92-0.73l-2.92-2.19l-4.015-3.65l-4.38-2.19l-3.65-2.92l-0.281-0.168l-1.179-0.927h-0.365l-1.825-1.095
		l-1.825-1.825l-0.365-0.365v-0.365l-1.095-0.73l-1.095-2.19l-1.095-1.46l-3.422-1.369l-0.593-1.186l-1.095-3.285l-4.38-2.555
		l-1.825-2.19l-1.095-3.285l-0.365-1.095l-0.852-1.338l-0.608-1.217l-0.669-0.791l-0.426-0.669l-2.028-2.231l-0.892-1.055
		l-2.555-3.285l-2.19-2.92l-0.365-2.555l2.19-5.841v-2.19l-0.365-0.365l-3.65-2.19l-3.285-0.365l-1.825-0.365l-0.365-1.095
		l-0.365-6.571l-0.821-0.274l-0.274-0.821v-2.19l-0.274-0.548l-0.091-0.913l-0.365-0.365l-0.365-0.365l-2.555-0.365l-1.095,0.365
		l-1.46,1.46v2.92l0.73,0.73l0.332,0.199l0.398,0.531l0.597,0.066l0.498,0.299h2.92v4.015l-0.365,1.46l-0.365,4.746l-2.19,0.73
		l0.365,1.095h0.073l0.292,0.73l0.365,4.746l0.876,1.168l0.219,0.657l1.46,1.46l0.657,0.146l1.168,0.584l2.19,1.095l1.825,2.92
		l2.19,2.555l0.73,4.38l0.365,0.73l0.365,0.365v0.365l1.46,1.095h2.19l0.365,1.095l0.73,3.65l1.46,4.38l0.73,0.183v0.183l2.19,0.365
		l0.73,0.73l1.46,3.65h0.061l0.304,0.73l1.46,0.73l0.133,0.398l-0.133-0.033l0.365,0.73l2.92,5.841l2.555,3.285l1.46,3.285
		l2.19,1.46l1.095,2.555l1.095,1.46l0.365,0.183v0.183l1.825,0.73l-0.365,2.555l1.825,2.555l2.92,5.111l1.825,4.746l1.46,2.555
		l0.365,2.555l-4.015-0.365v-0.365v-1.825l-1.095-0.73l-2.555-2.555l-1.825-0.365l-0.365,0.365l0.278,0.07l-0.209,1.043l-0.07-0.017
		v0.365l3.285,2.555v1.095l-2.555,1.46l-4.746,3.65l-2.555,2.92l-0.73,4.38h-0.73l-2.92,1.095v1.825l1.46,3.285l1.825,2.92
		l1.095,2.555l-0.332,0.1l-0.398-0.1l-2.92,1.095l-4.38,0.73l-1.46,1.46l-2.19,2.92v1.825l-1.825-0.365l-2.555-1.46l-3.285,0.365
		l-10.951,0.73l-2.92,2.555l-1.46-0.365h-3.285l-4.015,0.73h-4.38h-0.365l-1.46,0.365l-1.46,1.095v2.19l0.365,0.73l-0.365,2.92
		l0.365,1.46l0.183,0.183l0.183,0.548l2.555,1.825l0.365,1.825l-1.46,0.365h-12.046l-5.841-1.46l-1.46-0.73l-0.73-0.365l-0.73-0.365
		l-0.319-0.274l-0.046-0.091l-0.114-0.046l-2.076-1.78l-3.65-3.285l-3.285-1.825h-0.365h-2.555l-1.095,0.365l-0.028,0.084
		l-0.702,0.281h-3.285l-0.365-0.365l-2.008-2.19l-1.278-1.46l-0.112-0.056l-0.618-0.674l-0.365-0.73l-1.825-3.65l-0.317-0.278
		l-0.048-0.087l-0.091-0.034l-1.79-1.566l-1.404-1.685l-1.46-2.92l-1.095-1.46l-3.285-0.73l-0.365-1.46l-0.1-0.166l-0.265-0.929
		l-0.417-0.209l-0.313-0.521l-1.095-0.365l-0.996-0.083l-0.83-0.178v-0.104l-2.19-0.365h-6.206l-3.65,0.73l-1.825,1.46l-1.582-1.582
		l0.122-0.243l-0.73-0.365l-3.65-0.73l0.365-1.825l-0.043-0.107l0.043-0.258l-0.438-0.73l-0.292-0.73l-0.265-0.199l-0.1-0.166
		l-0.608-0.365l-1.217-0.913v-0.183l-0.73-0.365l-2.92-0.365l-1.095,0.365l-0.058,0.096l-0.672,0.269l-1.095,2.19v3.285l0.365,1.095
		l1.095,1.46l3.285,1.46l1.46,1.46l-0.365,1.095h-4.015l-2.92-1.095l-4.015-1.095h-1.825h-3.285l-2.19,1.095l-0.73,0.365
		l-0.183,0.548l-0.913,0.913v1.825l0.73,1.825l3.65,3.285l4.38,2.19l5.476,2.92l0.008-0.017l0.722,0.382l1.825,1.46l3.65,5.841
		l4.38,2.19l1.095,1.095l0.498,0.1l1.327,0.996l2.19,1.095l2.92,1.095l3.65,1.825l1.133,0.944l-0.038,0.151h0.219l0.876,0.73h2.19
		l0.365-0.365l0.292-0.584l0.073,0.219v-0.365l0.365-0.73l-1.825-1.825l4.015-0.365l0.73,2.555l0.73,0.73h1.825l0.397-0.317
		l0.333-0.048l0.487-0.608l0.608-0.487l0.183-0.502l0.183-0.228v-0.274l1.095-3.012l5.841-1.095h5.841l1.825,1.46l0.146,0.073
		l1.314,1.022l2.92,1.46l0.695,0.209l1.13,0.521l0.253,0.393l0.112,0.337l1.278,1.825l1.333,2.073l0.31,1.395v1.643l-1.095,1.46
		l-0.365,1.46l0.73,0.365l4.746,0.365l2.607,4.563l0.313,1.095v2.738l0.73,1.095l0.313,1.564l0.052,0.626l0.183,0.548l0.183,0.913
		l0.209,0.261l0.156,0.469l1.095,1.095l3.238,3.533l0.047,0.118l0.73,0.73l2.555,3.285l2.555,2.555l4.015,2.555l1.825,2.19
		l0.081,0.034l0.284,0.331h0.511l0.584,0.243v0.122l2.92,1.095l2.19,2.92l0.365,0.365v0.365l1.46,1.095l4.015,0.73l1.46,2.92v0.365
		l0.73,1.095l2.92,1.46l0.73,1.46l-1.46,0.73l-4.38,0.73l-4.746,1.095h-2.555l-2.19-0.73l-6.206-3.285l-2.555-4.015l0.365-2.555
		v-2.92l-1.825-2.92l-2.628-2.92l-0.292-0.365l-0.085-0.054l-0.28-0.311l-2.044-1.168l-1.606-1.022l-1.46-0.73l-2.555-1.46
		l-6.571-3.65l-2.555-0.639v-0.091l-1.825-0.365l-0.73-0.73l-0.365-0.091l-0.365-0.274l-2.92-0.548l-0.73-0.183l-2.555-0.73
		l-1.653-3.071l-2.119-4.449l-0.365-0.876l-1.338-4.015l2.19,1.095h4.38l1.825-1.095l2.19-3.285v-3.285l-0.73-1.46l-2.555-2.19
		l-3.65-0.365l-2.555,1.095l-2.19,3.65l-0.365-3.285l-0.365-0.73h-1.46v4.746l0.365,1.46l1.825,7.301l1.825,5.476l0.243,1.704
		l-0.159,0.796l-1.544-0.309l-0.73-0.73l-3.65-5.111l-3.65-3.65l-0.365-0.365h-0.365l-0.73-0.365l-0.091,0.365h-0.274l0.115,0.634
		l-0.115,0.461l0.365,1.168v0.292l0.219,0.657l0.146,0.803l0.639,1.551l0.456,1.369h0.107l1.353,3.285v3.65h-0.73l-6.571,2.555
		l-7.301,1.095l-1.46,0.73l-1.825,1.825v2.555l1.825,3.65l2.555,2.19l4.015,2.555l4.38,1.825l0.365,1.46l-3.285-0.73h-3.65
		l-0.73,0.365h-3.65l-6.571-1.46l-3.295-1.797l0.009-0.028l-0.73-0.365l-1.825-2.92l-0.162-0.203l-0.568-0.892l-1.314-1.46
		l-0.876-1.095l-0.365-0.284l-0.73-0.811l-1.369-0.821l-0.821-0.639l-0.548-0.183l-0.913-0.548l-0.417,0.104l-0.313-0.104
		l-0.73,0.365v1.095l0.274,0.274l0.091,0.456l3.65,3.285l1.46,1.825l1.752,2.336l0.584,1.022l0.328,0.983l-4.489-0.691h-4.015
		l-5.476,0.365h-5.841l-1.825-0.73l-2.19-1.825l-0.346-0.269l-0.384-0.461l-2.257-1.593l-0.299-0.232l-4.6-3.285l-3.796-2.92
		l-0.104-0.052l-1.356-1.043l-3.285-4.38l-3.65-3.65l-0.73-3.285H68.93l-0.199-0.73l-0.73-0.73l-0.834-0.313L66.54,240.3
		l-2.555-1.46l-1.825-4.38l-2.19-1.825l-1.825-2.92l-2.92-2.92l-2.92-2.555l-1.46-0.365l-0.365,1.825l1.46,1.095l1.46,1.825
		l2.555,2.555l1.46,2.555l-0.73,3.65v5.841l2.19,2.555l1,0.444l0.095,0.286l1.095,0.365l0.242-0.014l0.853,0.379l4.015,0.365
		l0.73,0.365l2.555,3.285l0.562,0.524l0.168,0.206l0.834,0.73l3.911,3.65l1.825,1.825h0.261l0.834,0.73l4.38,4.38l4.015,2.555
		l0.391,0.156l0.339,0.209l2.555,2.19l0.365,0.626v0.104l2.19,3.65l-0.365,2.19l-2.19,1.825l-1.46,2.92v3.285l1.825,5.841
		l0.365,2.19l-3.65,1.825l-1.46,1.825v2.92l0.73,2.555h-0.73l-1.46,1.095l-3.65,1.46l-2.92-1.46l-0.73-1.825l2.92-1.825l1.46-2.19
		v-2.555l-0.365-0.73l-2.92-1.46h-3.285l-0.73,0.365l-2.19,2.555l-1.551,1.551l-1.369,0.274l-5.476-1.46h-3.65l-0.73,0.365
		l-2.19,1.825l-1.095,3.285l0.365,2.92l1.46,2.19l2.19,1.46l5.841,1.095h4.38l1.46-0.365h4.746l1.095,0.365l6.936,1.095l1.095,0.73
		l1.825,2.92l2.19,2.92l5.476,4.746l0.365,1.825l-2.19,3.285l-0.584,1.898l-0.146-0.073l-0.199,1.195l-0.369,1.198l-1.44,1.44
		l-0.365,0.261l-2.373,1.017l-2.92,1.095l-0.13,0.261l-0.235,0.104v0.365l-0.365,0.73l0.365,0.073v0.292l0.852-0.122l0.608,0.122
		l0.762-0.317l0.333-0.048l1.825-0.852l1.46-0.608l-0.091-0.03l0.717-0.335l0.834-0.365l1.825-0.365l1.095,0.73l5.111,2.19
		l2.92,0.365l2.555-1.095l2.555,0.365l1.095,1.095v2.555l-0.73,1.825h-0.73l-0.73,2.19l0.73,0.913v0.183l0.199,0.066l0.531,0.664
		h2.19l0.365-0.365v-2.555l4.38-2.19l3.285-1.095l0.365,3.285l0.73,1.46l2.19,1.825l1.095,0.156v0.209h1.46v2.92l-0.511,0.852
		l-2.044,1.703l-3.65,0.73l-1.095,0.73l-0.73,1.825v2.92l1.095,1.095h2.92l1.46-0.365l4.746-2.92l5.841-4.015l1.46-3.285l1.46-2.555
		l1.46-0.73h2.92l3.285,5.841l0.913,2.373l0.913,2.738v2.92v4.015l0.73,3.285l0.365,5.841l1.095,1.825l0.365,1.825h-1.46
		l-5.841,1.825l-8.761,2.92l-6.206,1.095l-5.476,1.46l-6.206,2.92l-4.015,0.73l-2.19,0.73l-2.555,2.19l-4.015,0.73l-1.46,1.095
		l0.365,1.46l0.615,1.538l-0.615,0.287l-3.65,1.46l-4.38,2.19l-2.92,1.095l-0.365,0.365v0.608l-0.203,0.541l-0.162-0.054
		l-0.664,1.659l-0.398,0.266l-1.171,0.351l-2.512,0.279l-2.555-1.095h-2.555l-1.46,0.73v1.825l0.73,0.365l2.655-0.332l0.448,0.149
		l0.639,0.639l0.274,1.369l-1.46,1.46l0.047,0.236l-0.412,0.495l0.365,1.46v2.19l-0.365,0.73l-2.92,2.555l-0.365,2.555l-1.095,1.46
		l-2.738,2.008l-1.278,0.913l-0.062,0.07l-1.398,1.025l-3.65,3.65l-2.19,1.46v1.46h2.19l1.095-0.73l2.596-2.271l3.975-2.839
		l4.015-2.555l3.65-1.095h6.206l1.46-0.365l8.031-1.825l1.46-1.095h6.206l2.19-1.095l8.396-2.92l1.825-0.365l0.365,5.111
		l0.365,2.555l-3.65,2.92l-7.301,4.015l-1.825,2.555v4.015l1.095,1.095l2.555,0.365l3.65-1.825l2.92-2.555l2.555-2.92l2.92-2.92
		l2.92-2.19l3.285-1.095l4.746-0.73l1.675-0.387l1.976-0.344l0.568-0.243l0.527-0.122l0.183-0.183l1.278-0.548l2.555-2.19
		l1.825-3.65v-3.285l-0.73-1.46l-0.521-0.417l-0.209-0.313l-0.393-0.168l-0.702-0.562l-2.555-1.095h-5.841l-4.38,0.365l0.365-1.095
		l2.555-2.92l3.285-2.92l4.015-3.285l6.571-2.19l5.476-2.19l5.476-2.92l3.285-1.825h10.951l4.38-1.095l1.095-0.73l0.365-7.666
		l1.46-2.555l1.095-3.65l0.73-0.365h2.19l0.73,1.095l-0.73,2.92l0.365,2.19v9.491l-5.476,0.365l-1.095,0.73l-1.46,2.19l-0.365,2.19
		l0.73,1.46l0.365,2.92h-0.73l-2.555,2.555l-0.365,6.936l-0.365,1.825v4.015l1.095,2.19l-0.365,1.825l-2.19,1.825l-0.365,5.476
		l-1.46,3.65l1.46,1.46l1.095,2.555l1.095,1.825v2.555l-1.095,1.095v6.571l-1.394,2.788l-2.987,2.688l-1.46,2.19l-0.365,2.19h1.46
		l2.555-3.285l2.555-2.555l2.555-2.555l1.825-0.365l1.46,2.555l-0.365,2.19l-2.19,3.65l-1.825,4.746l-0.73,7.666l-0.73,1.095
		l-4.746,2.92l-4.015,1.825l-5.476,2.92l-1.46,1.825l0.365,1.095l1.825,0.73h5.476l9.491-1.46l1.095-0.73l1.46-2.19v-2.92v-2.555
		l1.095-2.19l1.095-0.365l13.141-3.285l4.746-1.095l3.285-1.095h2.92l2.19,1.46h2.555v0.73l-1.095,1.46l-3.285,4.015l-3.65,3.285
		l-1.825,1.825v2.92l0.365,1.095l0.73,0.365h2.555l5.476-1.825l3.307-0.301l1.074,3.221v2.555l-1.095,1.095l-0.73,3.65l-0.73,2.19
		l1.825,0.73l0.73,2.19l0.365,2.19l-2.19,1.095l-4.746,1.825l-4.38,2.19l-0.219,0.438l-0.146-0.073l-1.46,3.285l-3.285,1.46
		l-0.013,0.039l-0.717,0.326l-6.936,4.015l-0.365,1.46l1.095,0.73l2.555-0.365l2.767-1.537l2.298-0.836l2.966-0.913l1.46-0.365
		l0.973-0.608l1.217-0.487l0.73-0.73l2.434-2.129l1.582-0.791l1.095-0.73l2.555-1.46l2.92-1.46l1.877-0.626l0.556,0.139l0.852,0.852
		l0.365,0.73l0.365,2.19l-2.555,2.19l-3.65,2.92l-5.841,4.38l-2.92,1.825l-0.365,1.825l-0.73,2.19l-0.73,0.73l-3.285,3.285
		l-3.65,3.285l-0.365,1.46h1.46l1.095-0.73l4.38-3.285l0.973-0.852l1.217-0.973l0.146-0.219l0.584-0.511l0.365-0.913l0.365-0.548
		l-0.066-0.199l0.796-1.991l3.65-1.095l3.65-2.19l2.92-2.92l3.285-2.19h2.19l0.365,0.73l2.555,1.825l2.92-0.365h2.92l2.555,1.46
		h2.555l1.46-0.365l3.285-1.46l2.555-1.095l-0.365,1.46l0.73,2.92l1.564,2.607l0.261,0.678l0.183,0.061l0.183,0.304l0.365,2.555
		l1.095,0.73l1.825,1.825l0.365,4.745l0.365,0.73l1.825,1.46l5.111,0.365l-0.365,1.46l-0.73,0.73l-2.555,5.111l-2.19,0.73
		l-3.285,1.46l-5.111,2.92l-3.285,3.285l-3.65,3.285l-5.111,5.476l-4.015,4.746l-3.65,5.841l-1.825,4.38l-3.285,6.206l-1.095,3.65
		l-2.19,3.65l-2.555,4.015l-0.232,0.597l-0.133,0.133l-0.913,2.555l-1.278,3.285l-2.19,3.65l-3.285,1.095v2.19l0.365,0.73
		l-0.365,1.825l-0.365,2.555l1.095,1.46l2.555,0.365l1.825-1.825l0.365-4.746l1.825-4.38l2.555-5.111l1.408-2.19l2.607-3.65
		l0.73-1.46h0.73v-0.73h0.73l1.825-1.825l0.322-0.68l0.043-0.05l0.365-0.811l2.555-5.394l0.896-1.493l2.389-1.792l2.555-2.19
		l4.015-3.285l4.015-4.016l3.285-4.015l4.746-4.38l1.825-3.285l1.825-1.095l5.476-1.825l2.555-0.365l0.365,2.19l0.73,0.73
		l2.19,3.285l0.143,0.048l0.222,0.317l4.015,2.19l2.555,0.365l6.206-2.19l2.92-1.46l0.036-0.183l0.329-0.182l0.365-3.285l1.095-1.46
		l0.73-1.46l2.92-0.365v2.92l-2.19,3.285l-2.92,5.476l-2.555,3.65v2.92l-2.19,1.46l-3.285,2.92l-0.365,3.285l0.73,2.92l1.095,1.46
		h2.555l2.19-2.555l3.65-4.746l2.92-4.745l4.38-6.206l2.555-2.555l2.92-1.095l4.746,0.365l0.365-0.365l2.555-0.365l0.365,0.365
		l-0.365,1.46l-1.095,1.825v2.19l1.46,1.46l1.825,0.365l1.825-1.46l2.92-4.015l1.825,0.365l2.555,3.285v2.312l-0.172,0.458
		l-0.802,1.002l-1.217,0.973l-1.298,1.622l-1.622,1.298l-1.095,1.095v2.92l1.095,1.095l2.19-0.73l3.65-1.825l1.46-0.73l0.089-0.199
		l0.277-0.166l1.825-4.38l2.19-4.38l0.913-1.521l2.008-0.669l1.043-0.417l1.147-0.313l0.417-0.313l1.043-0.417l2.555-0.365
		l5.111,1.825l1.825,0.365l0.487-1.46h3.894l0.73,0.365l0.73,1.46l0.365,7.301l0.365,0.365v0.365l1.095,0.73l2.19-0.365l5.111-0.365
		l0.365-1.46l-1.46-2.19l0.365-2.19l1.46-0.73l2.92-0.365l3.65,3.65l1.825,4.746l1.825,3.285l0.365,0.73l0.243,0.365l1.217,2.19
		l0.438,0.292l0.292,0.438h0.365l1.095,0.73l1.46-0.365l0.73-1.46h2.19l3.285,2.555l1.46,1.825l1.46,3.285l1.46,2.92l1.46,0.365
		l1.095-0.73l5.476-1.095l1.46-0.73l1.825-1.46l1.825-4.746h1.825l0.365,0.365l1.095,2.92l1.825,1.46l4.015,0.365l1.095-0.73
		l0.365-0.73l1.46-1.46l1.095-0.73l2.92-2.555l1.46-1.825l1.825-1.46l2.555-2.555l4.015-2.555l3.285-0.365l1.314-0.438l0.511,0.073
		l0.146-0.292l1.314-0.438h3.65l2.19-1.46l5.111-1.825l2.555-2.19l3.285-0.73l1.46-1.095l3.65-1.095l3.65-2.555l5.111-0.73
		l2.19-2.19l4.015-0.365l0.73-0.365l3.285-5.111l1.46-0.365l1.825,3.285l0.876,1.168l0.219,0.657l1.095,1.095l0.365,0.365h0.183
		l1.643,1.095l2.19,0.365l1.825-0.73l1.46,2.555v2.92l3.285,4.015l2.555,3.285l0.73,3.285l0.73,1.704v0.487l0.307,0.231l0.058,0.134
		l2.19,4.38l0.365,4.015l0.365,0.365l1.46,1.46l1.186,0.456l0.274,0.274l0.616,0.068l2.33,0.896l0.521,0.313l0.997,0.997
		l1.011,5.391l0.365,12.776l1.095,1.825h1.825l1.095-1.095l1.095-6.571l1.095-0.73l0.365-1.825l-1.46-1.095v-7.666l1.46-1.095
		l1.095-3.285l1.095,0.365l2.129,2.434l0.061,0.122l0.07,0.028l0.295,0.337l4.38,2.19l1.46,2.19l1.606,0.876l0.219,0.219
		l0.247,0.035l1.943,1.06l1.46,1.46l4.906,4.6l2.103,2.336l1.022,1.278l0.365,0.548l1.46,2.19l0.079,0.02l1.381,2.17l1.825,1.46
		v3.285l0.73,1.217v0.243l0.365,0.365l5.476,9.126l-0.365,2.19v2.555l1.46,5.476l2.19,1.825l1.095,4.016l1.46,1.825l2.555,0.73
		v1.825l-1.095,1.825v2.19l0.365,0.73l1.825,0.73l-0.73,2.92l2.555,6.206l2.92,5.111l6.206,11.681l2.92,4.015l2.92,5.841l2.19,3.65
		l2.19,0.365l1.825-0.73l1.095-1.095l-0.73-3.285l-4.38-10.951l-1.825-5.476l-4.015-5.841v-2.92l0.365-2.19l-2.92-1.46l-1.825-1.825
		l-1.095-2.555l-0.365-4.745l-1.46-3.285v-4.38l-2.555-5.111l-1.46-1.825l-1.095-2.555l-2.92-1.46l-2.19-6.206l-1.46-6.206
		l0.365-1.46l2.19-1.095l1.095-1.825l0.365-2.555l-1.46-1.825l-2.19-0.365l-1.095,0.73l-1.095,2.92l-1.46,0.365l-0.73-3.65
		l-4.38-8.761l-1.825-4.38l-0.365-3.65l1.095,0.365l1.095,1.095l2.19,2.555l-0.365,2.92l0.73,0.365l1.825-0.73l0.73-2.19h0.73
		l1.46-2.92h3.285l0.73,0.292v0.073l1.095,0.365v0.73l0.398,0.266l0.332,0.83l2.92,1.46l-0.365,4.015l0.365,0.365v0.365l0.73,0.365
		l0.365,1.46l-1.825,1.825l0.73,2.19l1.825,1.46h2.19l0.73-1.095h1.46l1.825,1.46l2.555,3.285l1.095,3.65l1.46,1.46l1.095,0.182
		v0.182h1.095l1.095-0.73l0.038-0.176l0.692-0.554l1.095-4.38l-2.555-5.111l-4.38-6.206l-3.285-4.38v-2.92l-0.365-0.365
		l-0.348-0.608l-0.017-0.122l-4.015-6.936l-3.65-3.285l-2.555-5.111l-1.27-1.746l-0.19-0.444l-0.487-0.487l-0.973-1.339l-3.285-2.92
		l-2.19-2.19h-0.313l-0.417-0.365l-3.285-0.365v-2.19l-0.73-3.285l-1.095-2.92l-1.095-3.285h4.746l2.92-0.73l2.19-1.095l1.095-1.825
		l0.876,0.292l1.314,2.628l2.19,1.825l3.65,1.095l1.095,4.015l2.19,2.92l0.73,3.285l1.46,3.65l2.92,4.015l3.285,3.65l2.19,3.285
		l2.555,4.015l0.365,3.285l-1.46,1.095l-0.017,0.087l-0.348,0.278l0.162,0.649l-0.162,0.811l0.73,0.73l2.19,2.92l3.65,5.476
		l3.285,4.015h0.73l0.73,1.46l1.46,0.73v0.73h0.73v0.73h0.73v0.73h0.73v0.73h0.73v0.73l2.19,2.555l4.746,6.206l4.38,4.746
		l0.365,0.608v0.122l2.92,4.745l1.46,0.73v0.73l1.825,2.738l2.19,3.833l0.365,0.365l1.095,1.825l2.555,2.555l1.825,0.73l1.46-1.095
		v-2.19l-0.365-0.73l-3.65-5.111l-3.285-5.111l-0.182-0.091l-0.183-0.274l-1.46-3.285l-1.825-2.19l-0.091-0.046l-0.274-0.319
		l-1.095-0.365l-1.095-0.548v-0.548l-6.571-8.761l-4.38-6.571l-5.841-7.301l-2.92-4.38v-4.38l-1.825-4.015l-3.285-9.856
		l-1.825-4.015l-0.365-2.555h0.73v1.095l1.825,0.365l1.095-0.73l0.365-1.46l-1.095-0.365v-1.825l-0.73-1.46l-0.228-0.137
		l-0.137-0.228l-0.548-0.183l-0.913-0.548l-0.332,0.133l-0.398-0.133l-0.834,0.626l-0.261,0.104h-0.852l-0.306-0.229l-0.366-1.342
		l0.063-0.254l-0.417-1.043l-0.313-1.147l-1.46-2.92l-0.73-0.73l-3.65-3.65l-0.487-1.703l-0.243-2.677l-2.555-2.92l-1.095-3.285
		l0.365-7.301l1.46-0.365l2.555,1.46l0.34,0.238l0.026,0.127l0.197,0.028l3.089,2.162l1.825,1.825l-0.365,0.73v2.19l1.095,1.095
		l0.505,0.084l0.225,0.281h1.46l1.095-0.73l1.46-0.365l5.111,3.285l1.46,1.825l2.19,1.825l4.38,3.285l1.46,0.73v0.73h0.73l0.73,1.46
		l2.19,2.92l1.825,2.19l0.107,0.064l0.258,0.301l1.004,0.456l0.456,0.274l2.92,1.46l1.825,5.476l3.285,7.666l2.92,5.476l4.745,3.65
		l1.825,0.73l1.46-1.46v-3.285l-2.555-5.111l-4.015-5.841l-2.92-2.92l-1.46-3.65l-1.46-1.825l-2.92-4.015l-3.285-3.285l-1.095-1.095
		l-2.409-1.971l-2.336-2.044l-0.639-0.365l-2.281-1.825l-1.46-2.92l-0.365-0.73l-0.365-0.365l-3.65-5.476v-2.19h1.825l2.92,0.73
		l3.65,1.825l1.46,1.825l2.92,1.825h3.285l3.285-1.825l1.46-2.19l0.365-4.38l3.65,0.73l1.825,1.095l3.285,3.285l3.65,3.285
		l2.19,1.095l1.825,0.215v0.15l4.38,0.365l1.825,1.825l0.038-0.076l0.744,0.91l0.313,0.626l0.667,0.571l0.429,0.524l0.548,0.313
		l0.913,0.782h0.456l0.639,0.365h3.65l0.365-1.46l-2.92-2.555l-2.92-2.92l-1.825-1.095l-4.016-0.365l-2.091-1.792l-1.681-2.102
		l-2.434-3.407l-0.162-0.081l-2.028-2.839l-3.285-3.285l-0.365-0.365l-1.46-1.095l-1.825-1.46l-0.261-0.104l-0.834-0.626
		l-4.717-2.948l-0.393-0.337l-0.182-0.023l-0.548-0.342l-3.285-1.825l-0.608-0.122l-1.947-0.973h-5.841l-1.825,0.73l-2.19,1.825
		l-3.65,1.825l-2.92,1.825l-1.825,1.095v-0.73l-1.095-2.92l-1.825-1.095l-0.73-0.324l-0.73-0.406l-2.92-2.555l-0.365-2.19
		l1.095-1.095l1.46-1.825l-0.365-2.19v-2.92l2.19-2.555l0.365-1.825l-0.73-1.46l-0.73-2.434v-0.487l-0.365-0.73l-0.365-2.19
		l1.825-0.365h2.555l1.095-0.365v-3.285l0.73-0.73l3.65-2.19l2.92-0.365l1.095-0.73l1.095-3.65l3.65-1.825l2.92-2.19l1.46-3.65
		l1.095-3.65h0.73l2.19-1.825v-2.555l0.73-1.095v-2.92l0.548-0.913l1.278-1.278l0.033-0.1l0.332-0.265h7.301l0.73,0.365l1.825,2.555
		l0.365,2.555l2.555-0.365l2.555-2.92l4.38-2.19h2.19l0.73,0.73l2.19,0.365l0.365-2.19l1.46-3.65l1.095-1.095l1.825,0.365
		l2.19,1.825l3.65,2.19l1.095,3.285l2.92,0.365l0.365-0.73l-0.73-3.65l1.095-1.095l3.285-0.73l0.365-0.365v-4.015l-0.73-3.65
		l-0.73-1.46l-2.555-3.65l-3.285-5.111l-2.19-4.015l-2.92-5.476l-1.825-1.46l-0.304-0.061l-0.426-0.304l0.365-3.285h0.73v-0.73h0.73
		l1.46-1.46l0.365-3.285l0.365-4.015l-1.46-2.555l-2.19-1.095l-1.095-2.19l-1.095-3.285h1.095l4.746,1.46l1.46,2.19l5.476-0.365
		l1.46-1.825l0.365-3.285l1.825-0.73l4.015-0.365l1.095-0.365l1.095-1.095l0.73-1.46l4.38-0.73l0.73-1.46l-2.19-2.555
		L640.385,386.681z M109.98,388.872l0.073,0.073l0.292,1.752l-0.73,1.095h-2.555v-1.095l-0.107-0.322l1.202-1.503H109.98z
		 M132.978,320.609h-2.19l-0.365-0.365v-2.555l0.365-0.365h1.46l1.095,1.46L132.978,320.609z M89.295,303.087h0.608l2.555,0.365
		l0.365,1.46l-0.73,0.73l-3.285-0.365l-0.73-1.46L89.295,303.087z M204.161,448.373l-0.365,2.19l-2.92,1.095l-5.841,2.555
		l-2.92,0.365l-0.365-0.73l-1.095-4.38l-1.825-0.365l-0.73-1.46l0.365-3.285l1.825-1.46h2.92l0.73-2.555l0.73-0.73l6.936-1.095h2.19
		l1.095,1.46v2.19l-1.46,2.92l-0.122,0.608l-0.243,0.122v0.73l0.061,0.061l-0.061,0.304L204.161,448.373z M145.494,346.423
		l-1.564-2.816v-1.825l0.365-0.365l2.555,0.365l1.369-0.274l0.091,0.274h1.46l-0.365,1.825l-1.825,2.92l-1.825,0.365v-0.73
		L145.494,346.423z M193.94,434.867l1.394-0.929l0.796,0.199v1.825l-1.095,1.095l-1.46,0.365L193.94,434.867z M168.022,324.259
		l1.46-1.46l2.555-1.46l1.095,0.365l0.73,4.015l0.521,0.417l0.209,0.313l0.253,0.056l0.842,0.674h4.015l0.73-1.825h1.46l2.19,1.46
		l0.365,1.825l-0.73,0.73l-2.92,0.365l0.365,1.095l2.555,0.365l0.73,1.095v2.19l-1.825,1.095l-5.476,0.365l-1.095,0.365l-2.19-0.365
		l-1.46-2.19l-3.65-2.19l-1.095-1.825L168.022,324.259z M352.002,157.801l-1.825-0.365l-0.548-0.365h0.548l-2.19-1.46l0.365-1.46
		l2.091,0.299l1.195,0.796L352.002,157.801z"/>
	<polygon points="107.06,460.42 109.98,456.404 109.98,454.579 107.06,452.389 105.235,448.008 100.489,443.993 97.934,443.628 
		92.093,444.723 90.268,446.913 89.538,449.103 88.808,449.103 86.618,450.198 87.348,455.309 84.427,457.499 84.427,459.324 
		84.792,459.69 86.618,460.785 87.713,463.34 87.834,463.218 88.443,464.435 95.379,467.72 98.664,467.355 102.679,465.895 
		104.505,464.435 	"/>
	<polygon points="271.693,588.184 269.868,586.724 268.043,580.518 266.948,578.328 265.123,576.868 262.202,576.868 
		257.822,577.963 256.727,578.693 255.267,580.883 252.711,581.978 251.251,583.438 251.251,585.629 251.251,586.359 
		250.156,588.914 247.966,590.374 247.601,592.199 249.061,593.66 250.034,595.12 250.886,597.675 251.616,598.405 257.092,601.325 
		260.377,601.325 263.663,600.595 265.488,599.5 267.313,597.31 269.868,592.929 272.058,590.009 	"/>
	<polygon points="523.937,107.06 521.746,108.52 514.811,109.25 514.446,111.075 516.271,111.805 515.906,113.631 514.081,115.091 
		512.62,116.916 511.89,120.566 510.43,122.392 510.43,125.312 511.89,127.137 512.985,131.518 510.43,131.153 509.7,131.883 
		510.065,134.073 511.89,136.263 514.811,135.898 515.906,136.993 517.731,139.184 519.556,139.184 521.746,139.184 
		522.477,140.279 522.902,140.705 522.842,141.009 523.572,141.374 526.127,141.374 527.952,139.914 530.507,139.549 
		533.428,141.374 535.618,141.374 537.443,140.279 538.903,138.088 541.459,134.438 541.824,131.883 540.729,129.327 
		540.729,127.137 543.284,123.852 543.284,120.932 541.824,118.741 541.094,116.551 539.268,114.726 536.713,111.805 
		535.74,111.562 535.983,111.44 533.793,111.075 531.238,108.885 529.412,107.973 527.222,106.695 526.857,106.695 525.032,106.695 
			"/>
	<polygon points="156.34,83.332 156.34,87.348 155.975,88.443 155.975,91.363 157.801,95.379 160.356,98.299 164.006,99.759 
		164.554,99.85 165.101,100.124 168.387,100.489 170.577,102.314 173.862,103.044 177.878,105.235 177.918,105.072 178.243,105.235 
		178.504,104.713 178.608,104.87 179.338,103.044 182.258,102.314 182.623,101.949 182.988,101.949 183.11,101.463 183.354,101.219 
		183.32,100.622 183.354,100.489 183.312,100.468 182.988,94.649 182.258,93.553 181.163,91.363 181.528,88.808 181.528,86.253 
		180.433,83.515 179.338,79.682 178.608,77.857 175.688,76.397 174.958,73.476 173.862,70.921 171.672,69.461 170.577,67.636 
		168.387,67.27 166.562,68.001 164.006,68.366 161.451,67.636 158.896,67.27 157.071,68.731 154.88,73.111 154.88,76.031 
		155.61,78.587 	"/>
	<polygon points="637.099,601.325 635.274,599.135 625.783,594.39 622.863,594.025 620.307,595.12 618.482,597.31 618.482,599.865 
		619.212,601.325 620.673,602.786 621.038,603.151 622.133,603.493 622.133,603.516 627.17,605.195 627.921,605.758 
		629.068,607.288 630.529,609.721 633.084,612.642 635.274,613.737 638.195,613.372 640.385,610.816 640.385,607.166 
		639.533,605.888 	"/>
	<polygon points="311.848,141.009 314.768,142.834 320.244,142.834 321.339,142.469 322.799,141.374 322.89,141.228 
		323.164,141.009 323.712,139.914 324.624,138.453 324.551,138.234 324.989,137.358 324.989,132.978 323.529,129.692 
		322.069,127.867 318.419,125.677 315.498,125.677 314.403,126.407 311.118,127.867 309.658,133.708 309.293,136.263 
		310.023,138.453 	"/>
	<polygon points="496.559,87.713 499.479,89.173 500.939,92.093 502.034,92.458 506.05,91.728 507.145,90.998 509.7,90.998 
		510.43,90.268 510.065,88.078 510.065,84.792 510.795,81.872 511.16,79.317 510.795,78.952 508.24,78.587 506.05,76.762 
		503.859,76.397 499.479,77.127 499.114,77.857 499.114,81.142 497.654,81.507 496.194,84.427 495.829,86.983 	"/>
	<polygon points="393.617,92.823 393.982,94.284 396.902,95.379 399.458,95.744 400.918,94.649 404.203,94.649 405.298,93.918 
		406.759,89.173 406.759,84.792 405.663,83.332 403.838,81.507 401.648,80.777 397.633,80.412 393.982,82.602 392.522,85.888 
		392.522,89.903 393.252,90.998 	"/>
	<polygon points="180.068,154.88 177.148,156.706 175.688,158.531 175.688,161.451 176.418,164.371 178.608,166.927 
		184.084,168.752 186.639,168.752 187.369,168.387 189.194,165.832 190.289,163.641 190.289,160.356 189.559,157.801 
		188.464,156.34 185.909,155.245 181.163,154.515 	"/>
	<polygon points="699.156,157.436 695.506,155.61 690.76,155.61 688.205,156.34 687.11,157.436 685.65,162.546 685.65,168.387 
		686.38,169.482 687.84,170.212 690.03,170.577 693.681,168.752 696.236,165.832 698.061,164.371 699.521,162.181 699.521,161.816 
		699.521,157.801 	"/>
	<polygon points="96.839,158.531 101.219,159.261 103.775,158.896 105.235,157.801 107.06,154.88 107.06,151.96 104.505,148.675 
		104.14,145.389 101.584,144.294 99.029,143.929 98.299,144.294 94.649,147.945 93.553,150.135 93.553,153.785 95.014,156.706 	"/>
	<path d="M616.292,148.675h1.825l2.555-0.73l1.46-1.095l1.46-5.841l1.095-3.65h0.73l2.555-1.46l1.46-1.825l-0.365-1.46l-1.46-0.365
		l-1.217,0.73h-0.243l-0.365,0.365h-5.476l-1.46,0.73l-4.015,1.095l-1.46,2.92l-0.365,2.92l1.46,5.476L616.292,148.675z
		 M617.022,140.644l-1.095,0.365l0.365-1.825h0.365L617.022,140.644z"/>
	<polygon points="120.201,216.937 117.281,215.112 111.44,211.827 109.25,211.097 107.79,211.827 104.505,214.747 103.41,216.572 
		104.14,219.858 106.33,221.683 112.171,222.778 114.726,222.778 116.916,221.683 120.201,220.953 121.297,220.223 122.027,218.032 
			"/>
	<polygon points="390.697,604.976 387.411,604.246 385.221,604.976 383.396,606.436 381.571,611.547 381.571,614.467 
		381.936,615.197 383.761,616.657 388.141,617.752 391.427,617.387 393.252,615.927 393.982,614.102 393.982,610.816 
		392.887,607.531 	"/>
	<polygon points="442.533,84.427 444.358,84.062 446.548,84.427 448.373,84.062 451.294,82.237 451.659,80.777 452.024,77.127 
		451.659,75.301 448.008,72.016 446.183,72.016 442.898,72.746 441.802,73.476 440.707,77.127 440.707,80.412 440.342,81.142 
		440.707,83.332 	"/>
	<polygon points="466.625,122.757 469.181,123.852 471.736,123.852 472.466,123.122 476.116,122.027 476.846,120.566 
		476.481,115.091 476.116,113.996 473.561,111.805 471.736,111.805 469.911,112.901 468.45,112.536 466.625,112.901 465.53,114.726 
		464.8,116.916 	"/>
	<polygon points="504.59,70.191 506.05,69.096 508.24,68.001 509.7,66.175 511.89,63.255 514.811,57.414 514.446,55.589 
		511.525,55.224 510.795,54.494 508.97,54.129 507.51,55.224 507.51,57.414 507.875,57.779 509.7,58.875 509.7,60.335 
		508.24,63.255 507.145,63.255 506.78,60.7 506.05,59.97 502.399,59.97 500.574,62.16 500.574,66.175 502.764,70.191 	"/>
	<polygon points="289.945,127.137 287.39,130.058 287.755,132.248 288.485,135.533 287.39,136.628 286.66,139.184 287.755,140.279 
		288.85,139.914 289.215,137.358 291.041,137.723 294.326,137.723 295.421,137.358 297.246,136.263 298.341,132.613 
		297.976,129.327 296.151,127.867 294.326,125.677 292.501,125.677 	"/>
	<polygon points="656.447,315.863 656.447,311.483 653.526,308.563 649.876,306.737 646.225,306.737 644.035,308.198 
		644.035,310.388 645.13,312.578 646.59,315.863 648.416,316.958 652.796,317.689 655.351,317.324 	"/>
	<polygon points="652.431,267.313 651.448,268.099 651.336,268.043 650.606,268.773 649.511,271.693 649.876,274.249 
		652.431,276.439 655.716,276.804 657.907,276.074 659.732,273.884 659.367,270.598 656.447,267.313 653.526,266.948 	"/>
	<polygon points="80.047,454.214 77.857,450.929 75.301,446.913 74.936,446.548 74.206,445.453 71.286,444.358 69.461,441.802 
		67.27,440.342 64.715,439.977 63.255,441.072 63.255,442.898 63.985,444.358 66.905,446.183 70.191,446.913 70.191,447.643 
		71.286,449.833 72.746,451.294 75.301,450.929 77.127,452.389 78.952,456.039 80.412,456.404 80.412,454.944 80.082,454.426 	"/>
	<polygon points="358.208,66.54 359.668,66.905 361.128,65.81 365.144,62.16 366.239,59.605 365.874,57.414 365.509,57.049 
		365.022,56.563 365.144,56.319 364.414,55.954 361.859,55.224 360.763,55.589 360.697,55.689 360.033,55.954 357.478,58.875 
		357.113,61.43 357.843,62.525 	"/>
	<polygon points="91.728,355.653 92.093,356.383 94.284,357.843 96.839,357.843 98.664,357.113 100.489,354.923 100.489,351.637 
		100.124,350.907 99.435,350.218 99.394,349.812 98.907,349.69 98.299,349.082 95.744,348.717 94.649,349.082 93.188,350.177 
		91.728,352.367 	"/>
	<polygon points="196.495,126.042 196.921,126.529 197.225,127.137 198.199,127.989 199.05,128.962 199.531,129.155 
		200.145,129.692 200.47,129.53 200.875,129.692 203.796,128.232 204.161,125.677 201.971,123.122 200.686,122.319 200.51,122.027 
		199.05,121.297 196.86,121.297 195.765,122.027 195.4,123.487 195.452,123.591 195.4,123.852 	"/>
	<polygon points="514.227,69.826 514.081,69.826 511.16,72.381 510.43,76.031 510.795,78.222 511.89,78.222 513.716,76.762 
		516.271,76.397 517.731,77.857 520.651,78.952 523.572,78.952 525.032,77.857 526.127,75.301 526.492,71.651 525.397,69.461 
		522.477,67.636 519.191,67.27 519.921,64.715 519.556,62.525 518.096,61.795 517.731,62.16 516.636,63.985 517.001,68.001 
		515.541,68.731 	"/>
	<polygon points="97.204,134.438 99.759,134.438 100.854,133.343 101.219,131.518 100.124,128.962 98.299,126.772 96.109,126.407 
		94.284,127.867 94.284,131.518 95.744,133.708 	"/>
	<polygon points="686.745,308.198 683.46,308.198 681.999,309.293 681.634,311.483 682.365,312.943 684.92,314.403 688.57,314.403 
		689.665,312.943 688.935,309.658 	"/>
	<polygon points="169.847,535.618 167.292,538.173 166.927,539.999 169.847,542.919 171.672,542.919 174.227,540.729 
		174.227,537.808 172.037,535.983 	"/>
	<polygon points="676.889,164.371 674.699,166.927 674.699,168.752 676.159,170.577 677.619,173.497 679.079,173.497 
		679.809,172.767 680.174,166.197 678.714,164.371 	"/>
	<polygon points="363.684,628.703 362.589,627.608 360.398,627.243 359.668,627.608 359.303,627.973 358.938,627.973 
		357.843,629.434 357.843,631.624 359.668,633.449 362.589,633.449 363.319,633.084 363.501,632.536 364.049,631.989 	"/>
	<polygon points="332.29,628.703 330.1,628.703 328.275,630.529 328.275,633.449 329.37,634.909 332.655,634.909 333.02,634.544 
		334.115,632.719 333.75,630.164 	"/>
	<polygon points="633.084,301.262 633.084,303.452 633.449,303.817 636.369,305.277 639.655,305.277 641.845,303.817 
		641.48,302.357 637.464,300.897 634.179,300.532 	"/>
	<polygon points="611.547,576.868 610.086,578.693 610.451,581.613 611.912,582.708 614.467,582.708 616.292,580.883 
		616.292,578.693 614.467,576.868 	"/>
	<polygon points="438.882,95.744 441.072,97.934 442.898,97.934 444.358,96.474 444.723,94.284 443.993,92.458 442.898,91.363 
		441.072,90.998 440.342,91.363 438.882,93.553 	"/>
	<polygon points="320.974,584.899 318.784,583.438 315.133,582.708 313.308,583.073 310.388,584.899 307.832,587.819 
		307.832,591.834 308.198,592.564 308.271,592.564 308.928,593.66 312.578,594.39 316.593,595.485 319.149,595.485 321.339,594.025 
		322.799,591.834 322.799,587.454 322.434,586.724 	"/>
	<polygon points="90.633,222.322 90.633,222.413 92.823,223.143 95.379,223.143 96.474,222.778 97.569,221.683 97.681,221.009 
		97.934,220.588 97.843,220.04 97.934,219.493 97.66,218.945 97.569,218.397 97.256,218.137 97.204,218.032 94.795,216.061 
		92.458,214.017 89.903,213.652 87.713,214.382 85.888,216.207 85.888,219.128 86.983,220.953 	"/>
	<polygon points="242.855,578.693 241.03,577.233 238.84,577.233 237.015,579.058 237.015,581.248 237.38,581.978 239.205,583.073 
		241.76,583.073 243.22,581.248 	"/>
	<polygon points="156.706,543.649 154.88,543.284 154.515,543.649 153.42,546.569 151.96,547.299 151.96,548.759 153.42,550.22 
		154.88,550.95 155.975,549.125 158.166,548.029 157.801,544.744 	"/>
	<polygon points="283.74,104.14 284.105,107.06 282.645,109.615 282.645,112.171 282.28,116.186 284.47,118.741 285.174,119.054 
		285.2,119.106 286.66,119.836 286.817,119.784 287.755,120.201 289.215,119.836 292.136,116.916 292.501,116.551 292.866,115.699 
		293.231,115.091 293.267,114.762 293.596,113.996 293.596,111.805 293.596,109.615 292.501,107.79 292.014,107.401 291.771,107.06 
		291.173,106.728 290.676,106.33 290.333,106.261 288.485,105.235 286.295,104.505 285.93,102.679 286.295,99.029 285.93,97.204 
		285.2,96.474 283.01,96.474 281.915,97.569 281.915,100.124 282.645,101.584 	"/>
	<polygon points="387.776,657.907 385.221,657.177 383.396,658.637 383.031,660.827 384.19,663.919 384.126,664.112 
		385.951,668.493 386.195,668.615 386.681,669.588 389.237,669.223 390.697,666.303 390.697,663.382 389.237,659.732 	"/>
	<polygon points="363.319,151.595 366.604,149.04 368.429,146.849 368.064,145.754 366.604,145.389 364.779,146.849 
		358.938,150.865 358.573,152.69 360.033,153.055 	"/>
	<polygon points="468.816,584.899 467.72,585.264 466.99,585.629 466.99,585.994 466.625,586.359 466.625,588.914 468.45,591.104 
		470.641,591.104 471.736,589.279 472.101,585.994 471.006,584.899 	"/>
	<polygon points="635.274,146.849 637.099,146.484 638.56,145.389 638.925,143.199 637.464,141.374 634.909,141.009 
		633.814,141.739 632.719,143.564 633.084,145.754 	"/>
	<polygon points="203.066,80.047 205.256,80.047 206.716,78.587 207.081,76.397 205.256,74.206 202.701,74.206 201.241,76.031 
		201.606,78.587 	"/>
	<polygon points="337.766,130.788 338.496,126.042 339.226,125.312 339.278,124.843 339.591,124.217 339.591,122.027 
		338.861,120.201 337.766,120.201 337.401,120.566 337.218,120.932 336.671,121.662 336.671,122.027 336.306,122.757 
		335.941,127.502 335.941,131.153 337.401,131.518 	"/>
	<polygon points="242.49,115.821 244.68,115.456 245.045,113.631 242.125,108.885 240.665,108.155 239.57,109.98 239.57,112.536 
		240.3,113.996 	"/>
	<polygon points="94.284,439.977 96.109,438.517 96.109,435.597 95.014,434.137 92.823,434.137 92.093,434.502 90.998,435.597 
		90.998,438.517 92.093,439.612 	"/>
	<polygon points="128.597,467.72 127.867,468.085 126.772,469.911 127.137,472.101 128.232,473.196 130.788,473.196 
		131.883,472.101 132.248,469.546 131.153,467.72 	"/>
	<polygon points="666.668,306.737 664.477,306.737 664.112,307.102 663.747,308.563 665.938,311.848 666.668,311.848 
		666.668,312.578 668.128,313.673 669.953,314.038 669.953,312.213 668.128,308.563 	"/>
	<polygon points="660.462,169.482 659.002,170.942 658.637,173.497 659.732,177.148 661.557,177.513 663.017,170.942 
		662.287,169.482 	"/>
	<polygon points="491.813,97.569 489.988,95.744 486.703,95.014 485.607,95.379 482.687,96.109 481.227,97.204 481.184,97.311 
		480.862,97.569 480.188,99.254 480.132,99.029 479.402,101.219 480.132,103.044 481.957,104.87 483.052,107.06 487.798,107.425 
		488.259,107.348 489.258,107.425 489.745,107.1 489.988,107.06 490.118,106.851 490.353,106.695 490.901,105.6 491.813,104.14 
		492.087,103.227 492.543,102.314 492.447,102.026 492.908,100.489 	"/>
	<polygon points="473.277,86.983 473.561,92.093 474.291,93.553 476.116,94.649 478.307,94.284 478.672,92.093 479.402,92.093 
		481.227,90.998 482.647,88.362 482.687,88.443 484.147,85.815 485.607,84.062 487.798,80.047 487.433,78.587 485.242,78.222 
		484.147,78.587 481.774,79.773 481.592,79.682 480.497,80.777 480.497,81.02 479.803,81.945 479.767,81.872 479.037,82.967 
		477.577,83.259 477.577,81.872 475.751,81.507 474.656,82.602 473.561,84.792 473.196,85.523 473.257,86.618 473.196,86.983 	"/>
	<polygon points="648.781,142.834 649.146,142.469 650.241,140.644 649.876,138.819 648.416,137.723 646.225,137.723 
		644.765,138.819 644.765,141.739 645.86,142.834 	"/>
	<polygon points="74.936,162.181 76.762,162.546 77.127,160.721 76.031,159.261 72.746,155.245 70.921,154.88 70.556,155.245 
		70.556,157.071 71.651,158.896 	"/>
	<polygon points="130.788,122.392 131.883,121.662 131.518,118.741 130.788,116.551 128.962,115.821 127.502,116.551 
		127.502,119.836 128.597,122.027 	"/>
	<polygon points="373.175,630.529 371.715,626.513 369.524,624.688 367.334,624.688 366.604,625.053 365.144,626.878 
		364.779,629.434 365.509,631.259 366.173,633.648 366.969,637.099 367.699,638.56 368.308,639.046 368.794,639.655 369.14,639.712 
		369.524,640.02 370.311,639.907 370.985,640.02 371.569,639.728 372.08,639.655 372.262,639.381 372.445,639.29 372.81,638.56 
		373.54,637.464 373.449,637.282 373.905,636.369 	"/>
	<polygon points="659.002,383.761 656.812,383.396 656.447,383.761 658.272,387.411 660.097,389.602 661.922,389.602 
		663.017,387.776 662.652,386.316 	"/>
	<polygon points="260.742,572.852 262.202,571.757 262.202,569.567 261.107,568.107 258.187,568.107 257.092,569.202 
		257.092,571.757 258.187,572.852 	"/>
	<polygon points="169.847,529.777 172.037,529.412 173.497,527.587 173.497,522.112 172.037,518.096 170.577,516.271 
		168.752,516.271 167.657,517.366 166.197,520.651 166.197,523.937 166.562,525.397 168.022,528.682 	"/>
	<polygon points="69.096,217.302 71.286,217.667 72.746,216.937 72.746,215.112 69.826,214.017 66.905,214.017 65.81,214.382 
		65.445,215.842 66.905,216.937 	"/>
	<polygon points="312.213,629.799 310.023,629.434 308.198,630.529 307.102,632.354 306.737,639.29 307.467,640.385 309.293,641.48 
		311.848,640.75 312.943,639.655 314.038,636.369 314.038,633.814 313.673,631.989 	"/>
	<polygon points="387.046,131.518 388.872,132.978 391.427,132.978 393.617,132.248 395.807,129.692 397.998,126.407 
		397.998,123.487 397.267,122.757 395.442,122.757 391.062,124.947 388.141,126.772 386.681,128.962 	"/>
	<polygon points="488.893,68.001 488.893,70.191 489.258,70.556 490.718,70.921 495.829,64.35 495.829,62.16 494.003,60.335 
		491.813,59.97 490.353,60.335 487.798,62.525 486.703,65.08 486.703,68.001 487.068,68.366 	"/>
	<polygon points="575.042,107.79 576.868,108.155 577.598,107.425 577.598,104.87 575.407,102.314 573.217,102.314 572.852,103.044 
		573.217,104.87 	"/>
	<polygon points="228.619,72.016 230.444,72.016 230.809,71.651 230.444,69.461 228.619,68.001 224.238,67.27 224.238,68.731 
		225.333,70.191 	"/>
	<polygon points="219.493,166.562 217.667,167.657 217.302,169.482 218.762,170.942 222.048,170.577 222.778,168.752 
		221.683,166.927 	"/>
	<polygon points="547.299,602.055 545.839,603.151 545.839,605.706 546.204,606.436 547.664,607.166 549.125,606.801 
		550.22,605.706 550.585,603.881 549.49,602.421 	"/>
	<polygon points="667.033,190.654 668.128,189.924 668.858,188.099 667.398,186.274 664.843,186.274 663.747,187.369 
		663.382,189.194 664.843,190.654 	"/>
	<polygon points="570.662,111.805 572.487,110.345 572.487,108.155 571.392,107.06 569.202,107.06 568.107,107.79 567.742,110.345 
		568.472,111.44 	"/>
	<polygon points="85.523,390.697 85.523,392.887 86.253,393.617 88.443,393.982 89.903,392.887 90.998,391.062 89.538,389.602 
		86.618,389.602 	"/>
	<polygon points="558.251,545.474 557.52,545.839 556.06,547.299 556.425,549.49 558.981,550.22 560.806,548.759 560.806,546.934 
		560.076,545.839 	"/>
	<polygon points="665.938,334.115 664.477,335.211 664.477,337.401 665.573,338.496 668.128,338.496 668.858,337.766 
		668.858,335.211 668.128,334.48 	"/>
	<polygon points="274.614,83.332 275.344,82.602 275.344,78.587 274.979,77.857 273.154,77.492 272.423,78.952 272.058,82.237 
		272.789,83.332 	"/>
	<polygon points="214.382,175.323 212.557,176.053 210.732,178.243 210.732,181.163 211.462,182.258 213.652,183.719 
		217.302,183.719 219.128,181.893 219.493,179.338 218.762,177.148 216.572,175.323 	"/>
	<polygon points="362.954,90.998 360.763,93.553 360.398,96.474 361.493,97.934 364.049,98.299 365.509,96.839 368.064,96.474 
		368.429,97.934 369.524,99.759 371.35,100.124 372.81,98.664 372.445,96.474 369.889,92.093 368.064,89.903 365.144,89.903 	"/>
	<polygon points="160.721,414.789 161.816,414.059 162.181,412.964 161.451,410.774 158.896,410.409 158.166,411.139 
		157.436,412.964 158.531,414.789 	"/>
	<polygon points="627.243,274.979 627.608,273.884 626.148,273.154 621.403,273.154 620.673,273.519 620.307,274.979 
		621.038,275.709 625.418,275.709 	"/>
	<polygon points="458.959,73.841 460.055,73.111 460.42,70.556 459.324,69.461 457.134,69.461 456.404,69.826 456.039,72.381 
		457.134,73.841 	"/>
	<polygon points="158.896,538.173 158.531,538.538 158.896,542.554 159.626,543.284 161.451,543.649 162.181,542.919 
		162.181,539.999 160.721,538.538 	"/>
	<polygon points="307.832,618.117 307.832,616.292 307.102,615.197 305.277,614.832 303.452,616.292 303.452,618.117 
		304.547,619.212 306.737,619.212 	"/>
	<polygon points="627.243,353.463 627.973,353.098 628.338,351.272 627.243,349.447 625.053,349.082 624.323,349.812 
		623.958,352.002 625.053,353.463 	"/>
	<polygon points="360.398,87.713 362.224,88.078 363.684,86.253 363.684,84.062 362.589,81.872 360.398,78.952 358.573,78.587 
		358.208,79.317 358.208,84.062 358.938,86.253 	"/>
	<polygon points="234.459,148.31 234.459,145.754 234.094,145.024 231.539,144.659 230.809,145.389 230.444,147.579 231.539,149.04 
		233.729,149.04 	"/>
	<polygon points="510.065,95.744 510.795,97.569 512.62,99.029 515.176,99.029 516.271,98.299 517.183,96.474 517.366,96.474 
		517.457,95.926 517.731,95.379 517.64,94.831 517.731,94.284 517.457,93.736 517.366,93.188 516.818,92.458 516.636,92.093 
		516.524,92.065 516.271,91.728 514.081,91.363 512.62,91.728 510.43,93.188 	"/>
	<polygon points="578.328,137.723 578.247,138.697 577.963,139.549 576.138,145.024 574.312,149.405 573.217,149.77 
		572.487,146.849 569.932,147.214 568.837,149.04 568.837,151.595 569.567,154.88 570.241,156.004 570.297,156.34 570.443,156.34 
		570.662,156.706 572.122,156.34 574.677,153.42 578.328,147.214 578.646,146.155 578.693,146.119 579.423,143.564 580.883,139.549 
		582.343,138.088 582.708,135.533 582.343,135.168 580.518,134.803 579.058,136.263 	"/>
	<polygon points="530.872,105.965 532.333,103.41 532.333,101.219 530.872,101.219 530.142,101.584 528.682,103.41 528.317,105.6 
		529.047,106.33 	"/>
	<polygon points="193.21,490.718 193.94,490.353 194.305,487.798 193.575,486.703 191.749,486.703 190.654,487.433 190.289,489.623 
		191.019,490.718 	"/>
	<polygon points="457.134,109.25 458.229,108.155 458.594,106.33 457.864,105.6 455.674,105.6 454.214,106.695 454.214,108.885 
		454.579,109.25 	"/>
	<polygon points="208.176,174.593 208.906,173.132 208.541,170.942 207.811,170.212 205.986,168.387 205.557,168.279 
		205.256,168.022 205.11,168.168 204.526,168.022 204.161,168.387 203.066,172.037 203.796,174.227 205.986,175.323 	"/>
	<polygon points="195.035,168.387 196.13,167.657 196.495,165.466 195.4,164.371 193.575,164.371 192.48,165.101 192.48,167.292 
		192.845,168.022 	"/>
	<polygon points="118.741,256.727 117.281,257.822 117.281,259.647 117.646,260.012 119.836,260.377 121.662,259.282 
		121.662,257.457 120.932,256.727 	"/>
	<polygon points="631.624,365.509 631.259,364.414 629.434,364.049 628.703,364.414 627.973,366.239 627.973,368.794 
		629.434,369.524 	"/>
	<polygon points="578.328,96.839 579.058,96.109 579.058,93.918 578.328,93.188 576.503,92.823 575.407,93.553 575.042,95.379 
		575.773,96.474 	"/>
	<polygon points="514.811,87.713 515.906,86.983 516.271,84.427 515.906,84.062 514.081,83.697 512.62,84.792 512.255,86.983 
		512.985,87.713 	"/>
	<polygon points="655.716,452.024 655.351,452.389 654.986,454.579 655.716,455.309 657.542,456.039 658.637,455.674 
		659.367,454.214 658.272,452.389 	"/>
	<polygon points="361.493,72.016 361.859,70.191 359.303,69.826 357.113,71.286 357.113,73.111 358.208,73.841 	"/>
	<polygon points="665.938,403.108 664.843,404.203 664.477,406.028 665.208,407.124 667.033,407.124 668.128,406.394 
		668.128,403.473 667.763,403.108 	"/>
	<polygon points="623.593,303.817 620.673,303.087 617.387,303.087 616.657,303.452 616.292,304.547 617.022,304.912 
		623.228,305.277 	"/>
	<polygon points="151.96,460.785 152.325,457.499 151.595,456.404 149.405,454.944 146.484,454.944 145.024,456.769 
		145.024,459.324 145.389,460.055 147.579,461.88 150.5,461.88 151.595,461.15 151.595,461.058 	"/>
	<polygon points="150.5,133.708 152.325,141.374 154.515,144.294 155.245,149.405 155.975,150.5 156.425,150.837 156.34,150.865 
		160.356,153.785 162.546,156.706 164.736,157.071 165.101,155.61 160.995,151.846 160.599,151.352 159.626,149.405 
		158.896,145.024 157.071,136.993 154.15,130.423 153.42,125.677 153.198,125.344 153.055,124.582 152.716,124.243 152.69,123.852 
		151.96,123.487 149.04,123.487 148.675,123.852 148.675,126.407 149.405,130.058 	"/>
	<polygon points="245.045,90.998 247.966,90.998 249.061,90.268 249.426,88.078 246.506,84.062 245.723,83.749 245.776,83.697 
		244.68,83.332 243.95,83.697 242.855,85.523 243.585,89.538 	"/>
	<polygon points="646.956,270.233 647.686,269.503 647.686,266.948 647.321,266.583 645.13,266.583 644.035,267.313 
		644.035,269.503 644.765,270.233 	"/>
	<polygon points="557.155,83.697 559.346,83.332 560.441,82.237 561.171,78.952 560.076,77.127 557.52,76.762 556.425,77.127 
		554.6,78.952 554.6,81.507 554.965,82.237 	"/>
	<polygon points="273.884,573.582 274.614,575.042 274.979,577.233 274.249,577.598 273.519,579.058 275.344,579.058 
		276.804,578.328 277.169,575.773 275.709,573.947 	"/>
	<polygon points="139.184,535.983 136.628,535.618 133.708,537.443 132.613,538.538 132.613,544.379 134.073,546.204 
		136.628,546.569 138.453,545.839 139.914,544.744 141.374,543.649 141.374,538.538 141.009,537.808 	"/>
	<polygon points="74.206,350.177 73.841,347.622 71.651,347.257 70.556,348.352 70.921,350.542 73.476,350.907 	"/>
	<polygon points="176.783,196.495 176.678,197.225 176.418,197.225 176.418,199.05 176.783,199.415 177.513,200.145 
		178.187,200.258 178.608,200.51 179.156,200.419 179.703,200.51 179.703,200.328 180.798,200.145 182.623,198.685 182.623,196.86 
		181.163,195.765 177.878,195.765 	"/>
	<polygon points="349.447,621.768 348.352,623.593 348.352,628.703 349.812,629.068 350.542,628.338 352.002,626.148 
		352.367,622.863 351.637,621.768 	"/>
	<polygon points="273.154,601.325 271.693,602.786 271.328,605.341 273.154,607.166 274.979,607.166 276.439,606.071 
		276.439,605.706 276.804,605.341 276.804,602.421 275.709,601.325 	"/>
	<polygon points="100.124,210.001 100.489,208.176 99.394,206.716 97.569,206.716 96.839,207.446 96.839,209.271 98.299,210.367 	
		"/>
	<polygon points="89.538,342.511 88.443,343.972 89.173,345.797 90.998,346.162 92.093,345.432 92.093,343.241 91.363,342.511 	"/>
	<polygon points="179.703,123.487 179.703,121.297 179.338,120.932 177.513,120.566 176.418,121.297 176.418,123.122 
		177.878,124.582 	"/>
	<polygon points="664.843,458.229 664.112,458.959 663.747,460.42 665.208,461.88 667.398,461.15 667.033,458.594 	"/>
	<polygon points="324.259,576.868 323.529,577.598 323.529,579.423 324.259,580.153 326.815,579.788 327.18,578.693 326.45,576.868 
			"/>
	<polygon points="139.914,358.573 139.184,357.113 136.993,357.113 136.263,357.843 136.263,360.033 136.628,360.398 
		138.819,360.398 	"/>
	<polygon points="385.586,96.839 387.411,95.014 387.046,93.918 385.221,93.918 383.761,94.284 383.031,95.379 383.761,97.204 	"/>
	<polygon points="537.808,96.474 539.268,96.109 540.364,95.014 540.364,92.823 539.633,92.093 536.713,92.093 534.888,93.918 
		534.888,96.109 535.253,96.474 	"/>
	<polygon points="218.762,534.158 217.302,535.618 217.302,538.538 218.762,539.999 221.683,539.999 222.413,539.633 
		223.508,537.443 223.143,535.253 222.048,534.158 219.493,533.793 	"/>
	<polygon points="55.589,208.906 55.954,207.446 53.399,207.446 51.574,208.541 51.209,210.367 53.399,210.367 	"/>
	<polygon points="430.851,92.093 429.391,91.728 428.661,92.093 428.296,94.649 429.026,95.379 430.851,95.379 431.581,94.649 
		431.581,92.823 	"/>
	<polygon points="269.868,92.093 270.233,90.633 268.043,88.443 266.218,87.713 265.853,89.173 268.043,91.728 	"/>
	<polygon points="334.48,93.553 335.576,92.093 335.211,87.348 334.845,86.618 333.385,86.618 331.56,89.538 331.56,91.728 
		332.655,93.188 	"/>
	<polygon points="383.396,586.724 384.491,585.629 383.761,581.978 384.491,581.248 384.126,580.153 382.666,579.788 
		379.746,580.883 379.746,582.708 380.476,584.534 381.936,586.359 	"/>
	<polygon points="92.823,420.995 90.268,420.63 88.808,421.725 88.078,423.915 88.443,424.524 88.443,425.011 89.173,425.741 
		91.728,426.106 92.823,425.376 92.875,425.245 93.188,425.011 93.089,424.712 93.553,423.55 	"/>
	<polygon points="493.273,146.484 494.003,145.754 494.368,143.564 492.908,141.739 489.988,141.739 489.258,142.104 
		489.258,144.659 491.083,146.484 	"/>
	<polygon points="322.434,563.726 320.609,563.726 319.879,564.456 319.879,566.281 320.609,567.012 323.164,566.646 
		323.529,565.551 	"/>
	<polygon points="638.56,404.568 637.099,405.298 636.004,407.489 636.369,408.949 638.195,410.774 640.385,410.774 
		641.845,409.314 641.845,406.394 640.385,404.933 	"/>
	<polygon points="604.611,461.15 603.881,462.245 603.881,464.8 604.611,465.53 606.436,466.26 608.261,465.165 608.261,462.245 
		607.896,461.515 605.706,460.785 	"/>
	<polygon points="124.947,376.46 124.947,374.635 124.217,373.905 122.027,373.905 121.662,374.27 121.662,376.46 122.027,376.825 
		124.217,377.19 	"/>
	<polygon points="637.829,465.53 637.464,465.895 637.099,467.72 637.829,468.816 639.655,468.816 640.385,468.085 640.385,466.26 
		639.655,465.53 	"/>
	<polygon points="438.517,91.728 439.612,90.268 439.247,88.078 437.422,86.253 435.232,86.253 434.502,86.983 434.137,88.808 
		436.327,91.363 	"/>
	<polygon points="648.051,328.64 646.956,329.37 646.956,331.195 647.686,331.925 649.511,331.925 650.241,331.195 649.876,329.005 
			"/>
	<polygon points="221.683,183.719 221.683,185.544 222.778,186.274 224.968,186.274 225.333,184.814 224.238,183.354 
		222.048,183.354 	"/>
	<polygon points="59.24,446.548 58.875,446.913 58.509,448.738 59.24,449.468 61.43,449.468 61.795,449.103 61.795,446.913 
		61.43,446.548 	"/>
	<polygon points="563.726,685.285 563.726,686.745 565.186,690.03 566.646,690.76 567.012,689.665 565.186,686.015 	"/>
	<polygon points="282.28,139.914 283.375,138.453 282.645,136.993 280.819,136.628 280.089,137.723 280.454,139.549 	"/>
	<polygon points="333.75,610.816 332.655,611.912 333.385,613.737 334.845,614.102 335.941,612.642 335.576,611.182 	"/>
	<polygon points="639.655,252.711 639.655,250.521 638.925,249.791 636.734,249.061 636.004,249.426 634.909,250.521 
		634.909,252.711 635.639,253.806 637.829,254.171 	"/>
	<polygon points="92.093,238.84 92.458,240.665 95.014,240.665 95.379,238.84 94.649,238.11 92.823,238.11 	"/>
	<polygon points="155.975,453.484 155.61,455.309 156.706,456.039 158.531,455.309 158.531,453.484 157.071,452.754 	"/>
	<polygon points="664.112,275.344 663.747,277.169 664.477,277.899 666.668,277.534 666.668,275.709 666.303,275.344 
		664.477,274.979 	"/>
	<polygon points="648.781,181.163 646.59,182.988 645.86,184.814 646.59,187.004 649.876,189.194 652.066,189.559 653.891,188.829 
		655.716,187.004 656.082,184.449 654.986,181.893 653.161,180.798 649.876,180.798 	"/>
	<polygon points="291.406,92.458 291.406,90.268 289.945,89.538 289.215,89.903 288.85,92.458 289.945,93.188 	"/>
	<polygon points="365.144,584.899 364.414,582.343 362.954,581.613 362.589,581.978 362.224,582.343 362.224,584.168 
		362.954,588.914 364.414,589.644 365.144,587.819 	"/>
	<polygon points="72.381,188.464 73.476,187.369 73.111,185.544 71.286,185.179 70.556,186.639 70.921,188.099 	"/>
	<polygon points="618.482,130.423 619.212,130.058 619.553,129.619 619.943,129.327 620.114,128.898 621.768,126.772 
		623.958,125.677 624.323,123.852 622.863,122.027 620.307,121.297 619.212,121.662 617.387,123.852 614.102,127.137 
		613.737,128.962 614.832,130.423 	"/>
	<polygon points="579.423,506.05 579.058,507.51 580.153,508.605 581.978,508.605 582.343,507.145 581.248,506.05 	"/>
	<polygon points="658.181,134.438 660.097,131.883 661.922,130.058 662.287,128.597 660.827,127.867 660.097,128.232 
		657.907,130.058 657.626,130.788 657.542,130.788 656.082,134.803 655.716,136.628 656.812,136.628 	"/>
	<polygon points="629.799,460.785 628.703,459.69 627.243,459.324 626.878,460.42 627.973,462.245 629.434,462.61 	"/>
	<polygon points="208.906,85.157 207.081,84.427 207.446,86.253 208.176,86.253 208.176,86.983 209.636,88.078 211.097,88.443 
		210.732,87.348 	"/>
	<polygon points="645.13,260.742 644.765,258.917 642.94,258.552 642.575,258.917 642.21,260.377 642.94,261.107 644.765,261.107 	
		"/>
	<polygon points="671.778,267.678 671.048,268.408 671.413,269.868 673.238,270.233 673.969,269.503 673.604,267.678 	"/>
	<polygon points="666.668,261.837 671.048,261.837 672.143,260.377 671.778,256.727 669.953,254.902 663.017,251.616 
		660.097,250.886 658.637,251.251 656.812,253.076 656.749,253.454 656.447,253.806 656.568,254.536 656.447,255.267 
		656.784,255.828 656.812,255.997 657.104,256.362 657.542,257.092 657.907,257.366 658.272,257.822 658.793,258.03 
		660.462,259.282 663.017,260.334 663.017,260.377 	"/>
	<polygon points="125.312,527.222 122.392,528.682 118.011,529.777 115.821,531.603 115.124,532.764 115.091,532.698 
		113.631,535.253 111.075,538.173 107.79,538.903 107.425,539.086 106.695,539.268 105.6,540.364 105.874,540.364 104.505,542.554 
		104.505,545.839 105.235,547.664 106.695,549.125 109.25,549.125 111.44,547.664 113.266,544.744 114.726,543.284 119.471,540.729 
		123.852,540.729 125.312,538.538 126.772,537.808 128.597,535.983 128.597,532.333 129.327,531.238 129.692,528.682 
		128.232,527.587 	"/>
	<polygon points="503.859,97.934 503.859,96.109 502.034,96.109 501.304,96.474 501.304,98.299 503.129,98.664 	"/>
	<polygon points="297.611,582.343 297.976,583.803 299.802,584.168 300.167,581.978 298.706,581.248 	"/>
	<polygon points="660.462,479.767 661.192,481.592 663.017,481.227 663.017,479.402 661.557,478.672 	"/>
	<polygon points="416.615,123.122 416.25,120.566 414.789,120.566 414.424,120.932 414.789,123.487 	"/>
	<polygon points="191.749,69.096 192.114,67.27 190.289,66.54 189.559,66.905 189.559,68.366 190.654,69.461 	"/>
	<polygon points="431.581,57.779 433.042,57.049 433.042,55.224 431.216,54.859 430.486,55.954 430.851,57.414 	"/>
	<polygon points="223.508,511.89 221.683,511.525 221.318,511.89 220.953,513.351 221.683,514.081 223.508,513.716 	"/>
	<polygon points="443.993,110.71 446.548,110.71 446.913,110.345 449.103,107.06 448.738,105.235 446.548,103.775 447.278,102.314 
		446.913,100.489 443.993,99.759 443.263,100.124 441.802,101.949 441.437,103.775 443.993,104.87 444.723,106.695 443.628,108.885 
			"/>
	<polygon points="686.745,341.416 686.38,343.241 688.935,343.606 689.3,343.241 688.935,341.781 	"/>
	<polygon points="247.966,549.125 248.331,546.934 247.601,546.934 245.776,549.49 244.68,550.341 244.315,550.585 244.326,550.617 
		242.49,552.045 242.49,552.775 241.76,552.775 241.03,554.235 240.3,554.235 240.3,554.965 239.57,554.965 236.284,557.885 
		236.649,559.346 238.475,558.981 241.03,556.79 244.589,553.505 244.68,553.505 245.776,552.41 246.749,550.95 246.871,550.95 	"/>
	<polygon points="132.613,556.425 132.978,558.251 134.803,558.616 134.803,556.425 133.343,555.695 	"/>
	<polygon points="163.276,125.312 163.276,127.137 165.101,127.502 165.832,126.772 165.466,125.312 164.006,124.947 	"/>
	<polygon points="339.007,117.646 339.226,117.646 340.686,113.266 341.416,108.155 341.416,105.235 341.416,104.505 
		339.591,104.14 338.496,105.965 338.496,109.98 337.766,112.901 337.766,117.646 338.861,118.011 	"/>
	<polygon points="331.925,129.692 332.29,131.518 333.75,131.518 334.48,130.423 334.115,129.327 332.29,128.962 	"/>
	<polygon points="128.962,143.199 129.692,142.469 129.327,141.009 127.867,140.644 127.137,141.374 127.502,142.834 	"/>
	<polygon points="393.982,117.281 393.982,119.106 394.347,119.471 396.172,119.106 395.807,117.281 394.347,116.916 	"/>
	<polygon points="111.44,445.727 111.805,445.818 112.118,445.557 112.536,445.453 112.648,445.116 113.996,443.993 
		113.996,442.168 113.266,441.072 111.44,439.977 111.44,443.628 111.075,443.993 110.345,445.453 111.075,445.818 	"/>
	<polygon points="506.577,127.827 506.415,127.502 504.59,127.137 503.494,127.502 502.034,128.597 502.399,130.423 
		504.955,130.423 506.78,128.232 506.689,128.05 506.78,127.867 	"/>
	<polygon points="424.646,84.792 425.254,84.671 425.741,84.792 426.139,84.494 426.471,84.427 426.714,84.062 427.201,83.697 
		427.819,82.406 427.931,82.237 428.661,80.777 430.851,76.397 430.714,76.351 431.216,75.301 430.851,73.841 429.026,73.476 
		426.471,74.571 425.522,76.469 425.376,76.397 423.915,79.682 423.915,81.872 423.915,84.062 424.281,84.427 	"/>
	<polygon points="598.04,146.849 598.04,147.579 598.77,147.579 598.77,148.31 599.044,148.401 599.135,148.675 599.5,151.23 
		600.595,151.23 601.325,150.5 602.055,148.675 601.357,145.532 601.69,143.199 601.69,140.644 600.96,139.914 598.405,138.819 
		596.945,139.549 596.215,141.739 597.31,146.849 	"/>
	<polygon points="476.846,104.505 478.307,104.505 478.307,101.584 477.211,101.219 476.846,101.584 	"/>
	<polygon points="150.135,170.577 150.865,171.307 152.325,170.942 152.325,169.117 150.865,168.752 150.5,169.117 	"/>
	<polygon points="677.984,309.658 676.159,309.658 675.794,311.118 676.524,311.483 678.349,311.118 	"/>
	<polygon points="529.412,552.775 531.238,553.14 531.603,551.315 530.507,550.95 529.777,551.315 	"/>
	<polygon points="596.945,490.353 598.04,491.813 600.23,493.273 602.786,493.273 603.151,492.908 603.151,490.718 600.96,484.512 
		599.865,483.052 596.215,480.497 594.755,477.942 594.755,473.926 594.025,472.101 592.199,469.181 590.374,468.45 
		589.644,468.816 590.009,472.101 590.374,473.926 587.454,473.926 585.264,473.561 584.918,473.676 584.534,473.561 
		583.073,474.291 583.073,476.116 585.264,477.577 586.359,478.307 586.743,478.211 587.819,478.672 590.009,479.767 
		594.39,483.052 596.215,484.877 596.58,487.615 596.58,488.163 	"/>
	<polygon points="646.59,178.608 649.146,178.608 650.241,177.878 650.971,176.053 650.606,173.862 649.146,172.402 
		646.956,172.037 645.86,172.402 644.4,173.862 644.035,175.688 644.765,177.148 	"/>
	<polygon points="610.086,156.34 613.007,154.88 613.372,153.055 612.642,152.325 609.721,152.325 607.166,153.785 606.801,155.61 
		607.896,156.34 	"/>
	<polygon points="567.742,693.681 567.377,694.046 567.742,695.871 569.567,695.506 569.202,694.046 	"/>
	<polygon points="128.232,247.601 128.392,247.624 128.962,247.966 129.875,247.835 130.788,247.966 131.092,247.662 
		131.518,247.601 131.518,247.236 131.883,246.871 132.248,241.76 132.978,241.76 134.438,240.665 136.628,237.38 136.263,234.824 
		135.168,233.729 130.788,231.539 126.042,231.539 123.852,233.364 122.392,236.284 122.392,239.935 122.757,240.665 
		126.042,243.585 126.772,246.141 127.137,246.506 127.137,246.871 	"/>
	<polygon points="282.645,142.469 283.375,143.564 284.835,143.199 284.835,141.374 283.375,141.374 	"/>
	<polygon points="111.075,378.285 112.536,378.65 113.266,377.555 112.901,376.825 111.44,376.46 	"/>
	<polygon points="506.415,114.726 504.955,113.266 504.59,110.71 503.494,109.25 502.956,109.173 502.764,108.885 500.939,108.885 
		500.574,110.345 501.669,111.805 501.878,111.91 502.399,112.536 503.129,112.536 502.764,114.361 500.939,114.361 
		499.479,112.901 497.289,112.901 496.194,114.361 496.559,116.551 498.384,118.011 499.479,117.281 501.669,116.916 
		501.669,117.646 500.939,119.106 500.574,120.566 503.494,121.662 505.32,120.932 505.32,117.646 505.806,117.159 506.05,117.281 
		506.78,116.186 	"/>
	<polygon points="345.797,125.677 344.337,125.312 343.972,127.137 345.432,127.502 	"/>
	<polygon points="541.824,612.642 541.459,613.372 541.824,614.467 543.649,614.102 543.284,612.642 	"/>
	<polygon points="145.024,546.934 146.849,547.299 146.849,545.839 144.659,545.839 	"/>
	<polygon points="565.186,154.515 563.361,154.15 563.361,155.61 564.821,155.975 	"/>
	<polygon points="242.855,586.724 243.22,589.279 244.315,589.279 243.95,587.089 	"/>
	<polygon points="433.407,112.901 431.946,112.171 431.581,113.996 432.676,114.361 	"/>
	<polygon points="126.407,357.113 125.677,357.478 125.677,358.573 127.137,358.938 127.502,357.478 	"/>
	<polygon points="136.628,134.073 135.168,133.343 134.803,134.803 136.628,135.168 	"/>
	<polygon points="531.238,59.97 529.777,59.97 529.412,61.065 530.872,61.795 	"/>
	<polygon points="568.837,561.901 568.837,562.631 569.932,563.361 571.027,562.996 571.027,562.266 569.567,561.536 	"/>
	<polygon points="89.538,430.121 89.173,431.581 90.268,431.946 90.998,430.486 	"/>
	<polygon points="249.061,55.954 247.601,55.589 247.236,57.049 249.061,57.049 	"/>
	<polygon points="95.379,234.459 96.474,234.824 96.839,233.364 95.379,232.999 	"/>
	<polygon points="537.078,159.991 538.173,160.356 538.903,159.261 537.443,158.531 	"/>
	<polygon points="445.088,56.684 443.993,56.319 443.628,57.779 444.723,58.144 	"/>
	<polygon points="610.451,142.469 608.991,142.104 608.626,143.564 609.721,143.564 	"/>
	<polygon points="114.726,372.08 115.091,370.985 113.631,370.62 113.266,371.35 	"/>
	<polygon points="367.334,87.348 367.699,85.888 366.969,85.523 366.239,86.983 	"/>
	<polygon points="539.268,608.991 539.999,608.991 540.364,607.896 538.903,607.531 	"/>
	<polygon points="677.619,470.641 677.254,472.101 678.714,471.736 678.349,470.641 	"/>
	<polygon points="55.954,434.867 57.049,435.232 57.414,434.137 55.954,433.772 	"/>
	<rect x="69.249" y="209.789" transform="matrix(0.3162 -0.9487 0.9487 0.3162 -151.8263 210.0853)" width="1.154" height="1.154"/>
	<polygon points="313.673,577.963 313.308,578.328 314.403,579.423 314.768,578.328 	"/>
	<polygon points="687.84,489.988 688.935,489.988 688.935,488.893 688.205,488.528 	"/>
	<rect x="630.894" y="485.242" width="1.095" height="1.095"/>
	<polygon points="112.171,343.241 113.266,343.241 113.266,342.146 112.536,342.146 	"/>
	<polygon points="484.512,71.286 483.417,71.286 483.417,72.016 484.147,72.381 	"/>
	<rect x="499.479" y="93.553" width="1.095" height="0.73"/>
	<rect x="622.133" y="341.051" width="0.73" height="0.73"/>
	<polygon points="203.066,185.909 204.161,186.274 203.431,185.544 	"/>
	<rect x="187.734" y="113.996" width="0.73" height="0.73"/>
	<polygon points="356.018,132.978 356.018,133.708 356.748,133.708 	"/>
	<polygon points="465.165,76.397 464.435,76.397 464.8,77.127 	"/>
</g>
</svg>
